<svg width="300" height="284" viewBox="0 0 300 284" fill="none" xmlns="http://www.w3.org/2000/svg">
<rect width="299.833" height="283.144" fill="#E5E2FF"/>
<path d="M33.6349 51.6766V49.8776C36.7887 49.6333 38.6766 47.7455 38.6766 45.1025C38.6766 42.8371 37.0997 41.5711 34.4789 41.0159L32.2579 40.5495C31.2585 40.3496 30.3479 39.8832 30.3479 38.8615C30.3479 37.7066 31.3029 36.9737 32.7243 36.9737C34.2568 36.9737 35.3007 37.9509 35.3895 39.4168H38.4767C38.2768 36.7072 36.3667 34.886 33.6349 34.5306V32.665H31.6138V34.5306C29.0153 34.9082 27.2163 36.7072 27.2163 39.1058C27.2163 41.771 29.0597 42.7927 31.2141 43.2813L33.4795 43.7477C34.6122 43.992 35.3895 44.5473 35.3895 45.5023C35.3895 46.7238 34.2124 47.4123 32.6799 47.4123C30.8365 47.4123 29.7926 46.4351 29.7482 44.8582H26.661C26.8609 47.59 28.6821 49.4556 31.6138 49.8332V51.6766H33.6349ZM51.8776 45.3468C51.8776 43.7033 50.7893 42.5484 49.3456 41.9043C50.5228 41.2602 51.3667 40.2163 51.3667 38.7727C51.3667 36.2852 49.2346 34.464 46.1252 34.464C42.9714 34.464 40.8393 36.2852 40.8393 38.7727C40.8393 40.2163 41.6832 41.2602 42.8604 41.9043C41.3945 42.5484 40.3284 43.7033 40.3284 45.3468C40.3284 48.012 42.6161 49.8998 46.1252 49.8998C49.5677 49.8998 51.8776 48.012 51.8776 45.3468ZM44.0153 38.8837C44.0153 37.6622 44.8148 36.9071 46.1252 36.9071C47.3912 36.9071 48.2129 37.6622 48.2129 38.8837C48.2129 40.0164 47.3912 40.7272 46.1252 40.7272C44.8148 40.7272 44.0153 40.0164 44.0153 38.8837ZM43.5044 45.2802C43.5044 43.992 44.5039 43.1702 46.1252 43.1702C47.7021 43.1702 48.7238 43.992 48.7238 45.2802C48.7238 46.635 47.7021 47.4568 46.1252 47.4568C44.5039 47.4568 43.5044 46.635 43.5044 45.2802ZM59.0045 34.5084C55.562 34.5084 53.1855 36.796 53.1855 39.6833C53.1855 42.5262 55.3177 44.5473 58.3826 44.5473C58.6269 44.5473 58.8713 44.525 59.1378 44.4362L54.8291 49.7H58.316L62.8246 44.2363C64.2683 42.5262 64.8013 41.3268 64.8013 39.4834C64.8013 36.796 62.4026 34.5084 59.0045 34.5084ZM58.9823 37.0847C60.3593 37.0847 61.5809 37.9731 61.5809 39.5945C61.5809 41.349 60.3593 42.1264 58.9823 42.1264C57.5609 42.1264 56.3837 41.2824 56.3837 39.5722C56.3837 37.9731 57.5609 37.0847 58.9823 37.0847ZM71.5595 49.8998C75.0021 49.8998 77.3119 48.012 77.3119 45.2358C77.3119 43.6144 76.2458 42.4151 74.3802 41.8154C75.8238 41.0603 76.6234 39.972 76.6234 38.595C76.6234 36.1741 74.6911 34.464 71.5373 34.464C68.5834 34.464 66.318 36.4184 66.2958 39.017H69.2941C69.3163 37.7066 70.1159 36.9071 71.3818 36.9071C72.67 36.9071 73.4474 37.64 73.4474 38.8171C73.4474 40.0387 72.5368 40.7938 71.0265 40.7938H69.5828V43.2369H71.2042C73.0476 43.2369 74.1359 44.0142 74.1359 45.3246C74.1359 46.6572 73.2031 47.4568 71.6039 47.4568C70.0715 47.4568 69.0942 46.635 69.0054 45.2802H66.0071C66.0293 47.9898 68.3169 49.8998 71.5595 49.8998ZM90.9468 46.746V44.0586H88.8369V34.6861H86.3938L78.6426 44.4584V46.746H85.7719V49.7H88.8369V46.746H90.9468ZM82.0185 44.0586L85.7719 39.1058V44.0586H82.0185ZM96.5805 47.7233C96.5805 46.4795 95.7365 45.6133 94.515 45.6133C93.2935 45.6133 92.4273 46.4795 92.4273 47.7233C92.4273 48.9448 93.2935 49.811 94.515 49.811C95.7365 49.811 96.5805 48.9448 96.5805 47.7233ZM102.772 49.7V34.6861H96.842V37.3513H99.6849V49.7H102.772ZM115.951 46.9459H110.154L112.419 44.5028C115.04 41.8599 115.707 40.7049 115.707 38.8837C115.707 36.3518 113.508 34.464 110.509 34.464C107.289 34.464 105.024 36.5961 105.024 39.5945H108.022C108.022 38.1286 108.91 37.218 110.354 37.218C111.664 37.218 112.486 38.0398 112.486 39.2613C112.486 40.5717 111.753 41.5045 110.021 43.2813L105.468 47.9454V49.7H115.951V46.9459ZM122.183 43.881C124.96 43.881 127.047 41.771 127.047 39.2169C127.047 36.6405 124.96 34.5528 122.183 34.5528C119.385 34.5528 117.319 36.6405 117.319 39.2169C117.319 41.771 119.385 43.881 122.183 43.881ZM125.87 49.7L134.399 34.6861H131.933L123.405 49.7H125.87ZM122.183 41.7044C120.94 41.7044 119.829 40.8604 119.829 39.2169C119.829 37.5734 120.94 36.7294 122.183 36.7294C123.449 36.7294 124.515 37.5734 124.515 39.2169C124.515 40.8604 123.449 41.7044 122.183 41.7044ZM135.998 49.8998C138.796 49.8998 140.862 47.7899 140.862 45.2358C140.862 42.6594 138.796 40.5717 135.998 40.5717C133.199 40.5717 131.134 42.6594 131.134 45.2358C131.134 47.7899 133.199 49.8998 135.998 49.8998ZM135.998 47.7011C134.754 47.7011 133.644 46.8793 133.644 45.2358C133.644 43.57 134.754 42.7483 135.998 42.7483C137.264 42.7483 138.352 43.57 138.352 45.2358C138.352 46.8793 137.264 47.7011 135.998 47.7011Z" fill="#110D34"/>
<path d="M171.815 34.5721H173.796L166.33 41.9866L160.203 37.3907L150.266 47.3277L151.349 48.3598L160.346 39.4134L166.474 44.0093L174.879 35.6553V37.636H176.411V33.0402H171.815V34.5721Z" fill="#20A923"/>
<path d="M35.8806 91.8333H38.7767L34.0149 79.0759H31.0655L26.2681 91.8333H28.9866L29.9639 89.097H34.9211L35.8806 91.8333ZM32.4691 82.0254L34.1749 86.9471H30.7279L32.4691 82.0254ZM42.5874 86.6628C42.5874 85.1348 43.4225 84.353 44.3997 84.353C45.5191 84.353 46.0699 85.1348 46.0699 86.5384V91.8333H48.5219V85.7033C48.5219 83.4113 47.2071 82.1675 45.3059 82.1675C44.0621 82.1675 43.0849 82.7539 42.392 83.6955V82.3452H40.1177V91.8333H42.5874V86.6628ZM53.1197 86.6628C53.1197 85.1348 53.9548 84.353 54.9321 84.353C56.0514 84.353 56.6023 85.1348 56.6023 86.5384V91.8333H59.0542V85.7033C59.0542 83.4113 57.7394 82.1675 55.8382 82.1675C54.5945 82.1675 53.6172 82.7539 52.9243 83.6955V82.3452H50.65V91.8333H53.1197V86.6628ZM66.9569 87.8355C66.9569 89.1148 66.1041 89.8255 65.2157 89.8255C64.2207 89.8255 63.5632 89.2391 63.5632 87.9065V82.3452H61.0935V88.3863C61.0935 90.856 62.4794 92.0109 64.3806 92.0109C65.5888 92.0109 66.6371 91.4246 67.1524 90.5895V91.8333H69.4089V82.3452H66.9569V87.8355ZM77.2781 91.8333H79.2859V85.8632C79.2859 83.5356 77.8289 82.1675 75.3414 82.1675C73.0494 82.1675 71.468 83.5889 71.3259 85.7744H73.5469C73.6357 84.7083 74.2754 84.0864 75.3414 84.0864C76.372 84.0864 76.9761 84.7083 76.9761 85.7744V86.343C76.3897 86.2719 75.9278 86.2364 75.3947 86.2364C72.6229 86.2364 71.1304 87.2314 71.1304 89.0792C71.1304 90.856 72.4453 92.0109 74.4175 92.0109C75.7146 92.0109 76.6563 91.549 77.2781 90.6606V91.8333ZM73.458 89.0082C73.458 88.1553 74.151 87.7111 75.5546 87.7111C75.9811 87.7111 76.3897 87.7466 76.9761 87.8355V88.5107C76.9761 89.6123 76.2121 90.3052 74.9505 90.3052C74.0266 90.3052 73.458 89.8077 73.458 89.0082ZM83.9017 91.8333V79.0759H81.4142V91.8333H83.9017ZM92.6903 80.142C92.6903 79.2713 92.0151 78.6495 91.0378 78.6495C90.0784 78.6495 89.4032 79.2713 89.4032 80.142C89.4032 80.9771 90.0784 81.5989 91.0378 81.5989C92.0151 81.5989 92.6903 80.9771 92.6903 80.142ZM92.2994 91.8333V82.3452H89.8296V91.8333H92.2994ZM96.9669 86.6628C96.9669 85.1348 97.802 84.353 98.7792 84.353C99.8986 84.353 100.449 85.1348 100.449 86.5384V91.8333H102.901V85.7033C102.901 83.4113 101.587 82.1675 99.6854 82.1675C98.4416 82.1675 97.4644 82.7539 96.7715 83.6955V82.3452H94.4972V91.8333H96.9669V86.6628ZM109.027 92.0109C111.568 92.0109 113.345 90.3941 113.629 87.7822H111.035C110.893 89.0792 110.164 89.8255 109.027 89.8255C107.73 89.8255 106.931 88.7949 106.931 87.0892C106.931 85.4013 107.748 84.353 109.027 84.353C110.147 84.353 110.911 85.1348 111.035 86.3963H113.629C113.327 83.8377 111.497 82.1675 109.027 82.1675C106.362 82.1675 104.408 84.2464 104.408 87.0892C104.408 89.9854 106.291 92.0109 109.027 92.0109ZM117.685 87.2314C117.685 85.1348 119.088 84.6372 121.185 84.7972V82.2386C119.657 82.2386 118.182 82.9671 117.489 84.1753V82.3452H115.215V91.8333H117.685V87.2314ZM126.52 91.9932C128.83 91.9932 130.483 90.7672 131.016 88.6173H128.564C128.28 89.559 127.551 90.092 126.467 90.092C125.206 90.092 124.459 89.2391 124.3 87.6933H131.034C131.478 84.6017 129.488 82.1675 126.485 82.1675C123.749 82.1675 121.776 84.2286 121.776 87.0537C121.776 90.0209 123.678 91.9932 126.52 91.9932ZM126.432 83.9798C127.604 83.9798 128.351 84.8149 128.422 86.1298H124.335C124.548 84.7261 125.277 83.9798 126.432 83.9798ZM138.338 91.8333H140.346V85.8632C140.346 83.5356 138.889 82.1675 136.401 82.1675C134.109 82.1675 132.528 83.5889 132.386 85.7744H134.607C134.696 84.7083 135.335 84.0864 136.401 84.0864C137.432 84.0864 138.036 84.7083 138.036 85.7744V86.343C137.45 86.2719 136.988 86.2364 136.455 86.2364C133.683 86.2364 132.19 87.2314 132.19 89.0792C132.19 90.856 133.505 92.0109 135.477 92.0109C136.774 92.0109 137.716 91.549 138.338 90.6606V91.8333ZM134.518 89.0082C134.518 88.1553 135.211 87.7111 136.614 87.7111C137.041 87.7111 137.45 87.7466 138.036 87.8355V88.5107C138.036 89.6123 137.272 90.3052 136.01 90.3052C135.086 90.3052 134.518 89.8077 134.518 89.0082ZM150.487 88.7949C150.487 87.4268 149.546 86.574 147.698 86.2186L145.868 85.881C145.015 85.7211 144.624 85.4901 144.624 84.9215C144.624 84.3174 145.228 83.9798 146.134 83.9798C147.182 83.9798 147.875 84.5484 147.964 85.4723H150.327C150.15 83.429 148.515 82.1675 146.134 82.1675C143.771 82.1675 142.261 83.3935 142.261 85.1525C142.261 86.6273 143.291 87.569 144.997 87.871L146.703 88.1908C147.609 88.3685 148 88.6173 148 89.2214C148 89.8965 147.271 90.1986 146.312 90.1986C145.086 90.1986 144.251 89.5767 144.233 88.5995H141.87C142.065 90.7139 143.576 92.0109 146.276 92.0109C148.977 92.0109 150.487 90.7849 150.487 88.7949ZM156.296 91.9932C158.605 91.9932 160.258 90.7672 160.791 88.6173H158.339C158.055 89.559 157.326 90.092 156.242 90.092C154.981 90.092 154.235 89.2391 154.075 87.6933H160.809C161.253 84.6017 159.263 82.1675 156.26 82.1675C153.524 82.1675 151.552 84.2286 151.552 87.0537C151.552 90.0209 153.453 91.9932 156.296 91.9932ZM156.207 83.9798C157.379 83.9798 158.126 84.8149 158.197 86.1298H154.11C154.323 84.7261 155.052 83.9798 156.207 83.9798Z" fill="#110D34"/>
<path d="M244.863 83.7183C242.798 83.7183 241.372 85.0909 241.372 86.8233C241.372 88.529 242.651 89.7416 244.49 89.7416C244.637 89.7416 244.784 89.7283 244.943 89.675L242.358 92.8333H244.45L247.156 89.5551C248.022 88.529 248.342 87.8094 248.342 86.7033C248.342 85.0909 246.902 83.7183 244.863 83.7183ZM244.85 85.2641C245.676 85.2641 246.409 85.7972 246.409 86.77C246.409 87.8227 245.676 88.2891 244.85 88.2891C243.997 88.2891 243.291 87.7827 243.291 86.7566C243.291 85.7972 243.997 85.2641 244.85 85.2641ZM249.316 88.3424C249.316 91.3141 250.542 92.9665 252.794 92.9665C255.046 92.9665 256.286 91.3141 256.286 88.3424C256.286 85.3574 255.02 83.6917 252.794 83.6917C250.569 83.6917 249.316 85.3574 249.316 88.3424ZM251.222 88.3424C251.222 86.3968 251.782 85.3441 252.794 85.3441C253.82 85.3441 254.38 86.3968 254.38 88.3424C254.38 90.2747 253.82 91.3141 252.794 91.3141C251.755 91.3141 251.222 90.2747 251.222 88.3424ZM260.127 89.3419C261.793 89.3419 263.045 88.0759 263.045 86.5434C263.045 84.9976 261.793 83.745 260.127 83.745C258.448 83.745 257.209 84.9976 257.209 86.5434C257.209 88.0759 258.448 89.3419 260.127 89.3419ZM262.339 92.8333L267.456 83.8249H265.977L260.86 92.8333H262.339ZM260.127 88.0359C259.381 88.0359 258.715 87.5295 258.715 86.5434C258.715 85.5573 259.381 85.0509 260.127 85.0509C260.887 85.0509 261.526 85.5573 261.526 86.5434C261.526 87.5295 260.887 88.0359 260.127 88.0359ZM268.416 92.9532C270.095 92.9532 271.334 91.6872 271.334 90.1547C271.334 88.6089 270.095 87.3563 268.416 87.3563C266.737 87.3563 265.497 88.6089 265.497 90.1547C265.497 91.6872 266.737 92.9532 268.416 92.9532ZM268.416 91.6339C267.67 91.6339 267.003 91.1409 267.003 90.1547C267.003 89.1553 267.67 88.6622 268.416 88.6622C269.175 88.6622 269.828 89.1553 269.828 90.1547C269.828 91.1409 269.175 91.6339 268.416 91.6339Z" fill="#6F00EB"/>
<rect x="25.6992" y="105.4" width="248.433" height="8.56667" rx="4.28334" fill="#212123" fill-opacity="0.2"/>
<rect x="25.6992" y="105.4" width="222.733" height="8.56667" rx="4.28334" fill="#6F00EB"/>
<circle cx="38.1209" cy="169.222" r="11.565" stroke="#212123" stroke-opacity="0.2" stroke-width="1.71333"/>
<path d="M42.7036 158.648C42.9008 158.193 43.4314 157.982 43.871 158.211C45.3577 158.987 46.6746 160.058 47.7397 161.362C48.9946 162.898 49.8636 164.712 50.2739 166.652C50.6841 168.592 50.6238 170.603 50.098 172.515C49.5722 174.427 48.5961 176.186 47.2513 177.644C45.9066 179.102 44.2324 180.216 42.3687 180.895C40.505 181.573 38.5059 181.795 36.5388 181.542C34.5717 181.29 32.6936 180.57 31.0617 179.443C29.6766 178.486 28.503 177.26 27.6094 175.84C27.3451 175.421 27.5136 174.875 27.9513 174.641V174.641C28.3889 174.408 28.9297 174.576 29.1991 174.993C29.9544 176.161 30.9333 177.171 32.0824 177.965C33.4783 178.929 35.0848 179.545 36.7676 179.761C38.4503 179.977 40.1603 179.787 41.7545 179.207C43.3487 178.627 44.7809 177.673 45.9312 176.426C47.0815 175.179 47.9164 173.675 48.3662 172.039C48.8161 170.403 48.8676 168.683 48.5167 167.024C48.1657 165.364 47.4224 163.812 46.3489 162.498C45.4653 161.417 44.3791 160.523 43.1543 159.864C42.7176 159.629 42.5063 159.104 42.7036 158.648V158.648Z" fill="#6F00EB"/>
<path d="M63.3402 174.852C65.4335 174.852 66.9205 173.408 66.9205 171.56C66.9205 169.669 65.5346 168.384 63.629 168.384C63.3691 168.384 63.0804 168.442 62.7917 168.543L65.6645 164.963H64.0043L61.0593 168.601C60.222 169.611 59.7745 170.391 59.7745 171.632C59.7745 173.408 61.2758 174.852 63.3402 174.852ZM63.3547 173.625C62.2142 173.625 61.3047 172.816 61.3047 171.589C61.3047 170.232 62.2142 169.539 63.3547 169.539C64.5096 169.539 65.4047 170.319 65.4047 171.603C65.4047 172.816 64.5096 173.625 63.3547 173.625ZM71.3187 174.866C73.5853 174.866 74.8412 173.35 74.8412 171.603C74.8412 169.943 73.6719 168.442 71.5209 168.442C70.8568 168.442 70.236 168.644 69.6874 169.077L70.1205 166.262H74.2782V164.963H69.0667L68.2005 170.405L69.3843 170.781C69.7885 170.073 70.4381 169.712 71.3043 169.712C72.6036 169.712 73.3254 170.593 73.3254 171.603C73.3254 172.715 72.6613 173.552 71.3187 173.552C70.236 173.552 69.442 172.932 69.341 171.892H67.8829C67.9551 173.625 69.4131 174.866 71.3187 174.866ZM78.8067 170.939C80.5824 170.939 81.8528 169.582 81.8528 167.908C81.8528 166.233 80.5824 164.876 78.8067 164.876C77.0455 164.876 75.7751 166.233 75.7751 167.908C75.7751 169.582 77.0455 170.939 78.8067 170.939ZM80.8856 174.722L86.4003 164.963H85.2021L79.6874 174.722H80.8856ZM78.8067 169.885C77.8395 169.885 77.0022 169.193 77.0022 167.908C77.0022 166.608 77.8395 165.93 78.8067 165.93C79.7884 165.93 80.6257 166.608 80.6257 167.908C80.6257 169.193 79.7884 169.885 78.8067 169.885ZM87.4397 174.837C89.2154 174.837 90.4714 173.495 90.4714 171.806C90.4714 170.131 89.2154 168.774 87.4397 168.774C85.664 168.774 84.4081 170.131 84.4081 171.806C84.4081 173.495 85.664 174.837 87.4397 174.837ZM87.4397 173.783C86.4725 173.783 85.6207 173.09 85.6207 171.806C85.6207 170.521 86.4725 169.842 87.4397 169.842C88.4214 169.842 89.2443 170.521 89.2443 171.806C89.2443 173.09 88.4214 173.783 87.4397 173.783Z" fill="black"/>
<g clip-path="url(#clip0_541_69)">
<path d="M212.789 169.222C212.789 170.938 212.121 172.551 210.908 173.765C209.694 174.978 208.081 175.647 206.364 175.647C204.648 175.647 203.035 174.978 201.821 173.765C200.608 172.551 199.939 170.938 199.939 169.222C199.939 167.505 200.608 165.892 201.821 164.678C203.035 163.465 204.648 162.797 206.364 162.797C208.081 162.797 209.694 163.465 210.908 164.678C212.121 165.892 212.789 167.505 212.789 169.222Z" fill="#FEE158"/>
<path d="M212.79 169.222C212.79 170.938 212.122 172.551 210.908 173.765C209.695 174.978 208.081 175.647 206.365 175.647V162.797C208.081 162.797 209.695 163.465 210.908 164.678C212.122 165.892 212.79 167.505 212.79 169.222Z" fill="#FFB528"/>
<path d="M206.365 174.291C209.165 174.291 211.434 172.022 211.434 169.222C211.434 166.422 209.165 164.152 206.365 164.152C203.565 164.152 201.295 166.422 201.295 169.222C201.295 172.022 203.565 174.291 206.365 174.291Z" fill="#FFB528"/>
<path d="M211.435 169.222C211.435 172.017 209.161 174.291 206.365 174.291V164.152C209.161 164.152 211.435 166.426 211.435 169.222Z" fill="#FE8C01"/>
<path d="M208.29 169.143C208.206 169.059 208.114 168.985 208.016 168.922C208.247 168.663 208.388 168.322 208.388 167.949C208.388 167.559 208.235 167.192 207.958 166.915C207.681 166.638 207.314 166.485 206.924 166.485H206.74V165.758H205.988V166.485H204.33V167.238H204.945V171.205H204.33V171.958H205.988V172.685H206.74V171.958H207.125C208.034 171.958 208.774 171.218 208.774 170.309C208.774 169.869 208.602 169.455 208.29 169.143ZM205.698 167.238H206.924C207.113 167.238 207.291 167.313 207.426 167.447C207.561 167.582 207.635 167.76 207.635 167.949C207.635 168.337 207.322 168.653 206.936 168.659H205.698V167.238ZM207.125 171.205H205.698V169.413L206.364 169.412L207.125 169.412C207.363 169.412 207.588 169.506 207.758 169.676C207.928 169.846 208.021 170.07 208.021 170.309C208.021 170.803 207.619 171.205 207.125 171.205Z" fill="#FEE158"/>
<path d="M208.776 170.309C208.776 171.218 208.036 171.958 207.126 171.958H206.742V172.685H206.365V171.205H207.126C207.621 171.205 208.023 170.803 208.023 170.309C208.023 170.07 207.929 169.846 207.759 169.676C207.589 169.506 207.364 169.412 207.126 169.412L206.365 169.412V168.659H206.937C207.324 168.653 207.636 168.337 207.636 167.949C207.636 167.76 207.562 167.582 207.427 167.447C207.292 167.313 207.114 167.238 206.926 167.238H206.365V165.758H206.742V166.485H206.926C207.315 166.485 207.683 166.638 207.96 166.915C208.237 167.192 208.389 167.559 208.389 167.949C208.389 168.322 208.248 168.663 208.018 168.922C208.115 168.985 208.207 169.059 208.291 169.143C208.604 169.455 208.776 169.869 208.776 170.309Z" fill="#FFB528"/>
</g>
<path d="M223.717 171.434C223.717 170.524 223.184 169.846 222.195 169.569C222.962 169.235 223.417 168.591 223.417 167.836C223.417 166.492 222.451 165.748 220.84 165.748H218.075V173.722H220.996C222.651 173.722 223.717 172.889 223.717 171.434ZM220.763 166.726C221.729 166.726 222.251 167.181 222.251 167.925C222.251 168.669 221.729 169.124 220.763 169.124H219.197V166.726H220.763ZM220.918 170.102C221.962 170.102 222.551 170.59 222.551 171.401C222.551 172.245 221.962 172.745 220.918 172.745H219.197V170.102H220.918ZM226.401 166.47C226.401 166.037 226.068 165.726 225.591 165.726C225.113 165.726 224.769 166.037 224.769 166.47C224.769 166.892 225.113 167.214 225.591 167.214C226.068 167.214 226.401 166.892 226.401 166.47ZM226.157 173.722V167.836H225.036V173.722H226.157ZM231.035 172.634C230.801 172.745 230.568 172.789 230.302 172.789C229.702 172.789 229.313 172.5 229.313 171.69V168.791H231.09V167.836H229.313V166.093H228.192V167.836H226.892V168.791H228.192V171.945C228.192 173.244 228.947 173.833 230.035 173.833C230.39 173.833 230.69 173.777 231.035 173.622V172.634ZM234.319 173.844C235.796 173.844 236.84 172.889 237.039 171.334H235.873C235.74 172.289 235.163 172.845 234.33 172.845C233.364 172.845 232.731 172.034 232.731 170.779C232.731 169.535 233.364 168.713 234.33 168.713C235.152 168.713 235.74 169.28 235.862 170.224H237.039C236.828 168.691 235.773 167.725 234.319 167.725C232.731 167.725 231.576 169.002 231.576 170.779C231.576 172.578 232.709 173.844 234.319 173.844ZM240.579 173.833C242.245 173.833 243.467 172.522 243.467 170.779C243.467 169.036 242.245 167.725 240.579 167.725C238.914 167.725 237.692 169.036 237.692 170.779C237.692 172.522 238.914 173.833 240.579 173.833ZM240.579 172.845C239.613 172.845 238.858 172.067 238.858 170.779C238.858 169.491 239.613 168.725 240.579 168.725C241.546 168.725 242.312 169.491 242.312 170.779C242.312 172.067 241.546 172.845 240.579 172.845ZM245.976 166.47C245.976 166.037 245.643 165.726 245.165 165.726C244.688 165.726 244.344 166.037 244.344 166.47C244.344 166.892 244.688 167.214 245.165 167.214C245.643 167.214 245.976 166.892 245.976 166.47ZM245.732 173.722V167.836H244.61V173.722H245.732ZM248.41 170.401C248.41 169.358 249.054 168.713 249.821 168.713C250.654 168.713 251.098 169.28 251.098 170.29V173.722H252.219V169.913C252.219 168.502 251.42 167.725 250.209 167.725C249.399 167.725 248.732 168.158 248.333 168.813V167.836H247.289V173.722H248.41V170.401Z" fill="black"/>
<circle cx="38.1209" cy="206.915" r="11.565" stroke="#212123" stroke-opacity="0.2" stroke-width="1.71333"/>
<path d="M42.7036 196.342C42.9008 195.887 43.4314 195.675 43.871 195.904C45.0478 196.519 46.1202 197.319 47.0462 198.276C48.1807 199.448 49.0733 200.832 49.6729 202.349C50.2725 203.866 50.5675 205.486 50.5409 207.117C50.5192 208.449 50.2837 209.766 49.8451 211.019C49.6813 211.487 49.1492 211.695 48.6941 211.498V211.498C48.2391 211.301 48.034 210.773 48.1921 210.303C48.5402 209.268 48.7273 208.183 48.7451 207.088C48.7678 205.693 48.5155 204.307 48.0026 203.009C47.4897 201.712 46.7262 200.528 45.7557 199.525C44.9938 198.738 44.116 198.075 43.1543 197.557C42.7176 197.322 42.5063 196.797 42.7036 196.342V196.342Z" fill="#6F00EB"/>
<path d="M66.2309 211.116H62.1165L64.0799 208.893C65.6823 207.189 66.101 206.409 66.101 205.298C66.101 203.695 64.7728 202.512 62.9538 202.512C61.0194 202.512 59.6623 203.811 59.6623 205.615H61.0915C61.0915 204.533 61.8134 203.825 62.8961 203.825C63.8922 203.825 64.5707 204.504 64.5707 205.471C64.5707 206.352 64.1232 207.03 62.9683 208.286L59.9222 211.578V212.415H66.2309V211.116ZM67.5764 207.55C67.5764 210.784 68.8324 212.559 71.1711 212.559C73.5098 212.559 74.7802 210.784 74.7802 207.55C74.7802 204.316 73.4809 202.512 71.1711 202.512C68.8613 202.512 67.5764 204.316 67.5764 207.55ZM69.0778 207.55C69.0778 205.11 69.8285 203.825 71.1711 203.825C72.5426 203.825 73.2788 205.11 73.2788 207.55C73.2788 209.975 72.5426 211.246 71.1711 211.246C69.7996 211.246 69.0778 209.961 69.0778 207.55ZM78.9477 208.633C80.7234 208.633 81.9938 207.276 81.9938 205.601C81.9938 203.926 80.7234 202.569 78.9477 202.569C77.1865 202.569 75.9161 203.926 75.9161 205.601C75.9161 207.276 77.1865 208.633 78.9477 208.633ZM81.0266 212.415L86.5413 202.656H85.3431L79.8283 212.415H81.0266ZM78.9477 207.579C77.9805 207.579 77.1432 206.886 77.1432 205.601C77.1432 204.302 77.9805 203.623 78.9477 203.623C79.9294 203.623 80.7667 204.302 80.7667 205.601C80.7667 206.886 79.9294 207.579 78.9477 207.579ZM87.5807 212.531C89.3564 212.531 90.6124 211.188 90.6124 209.499C90.6124 207.824 89.3564 206.467 87.5807 206.467C85.805 206.467 84.5491 207.824 84.5491 209.499C84.5491 211.188 85.805 212.531 87.5807 212.531ZM87.5807 211.477C86.6135 211.477 85.7617 210.784 85.7617 209.499C85.7617 208.214 86.6135 207.536 87.5807 207.536C88.5624 207.536 89.3853 208.214 89.3853 209.499C89.3853 210.784 88.5624 211.477 87.5807 211.477Z" fill="black"/>
<g clip-path="url(#clip1_541_69)">
<path d="M212.789 206.915C212.789 208.631 212.121 210.245 210.908 211.458C209.694 212.672 208.081 213.34 206.364 213.34C204.648 213.34 203.035 212.672 201.821 211.458C200.608 210.245 199.939 208.631 199.939 206.915C199.939 205.199 200.608 203.585 201.821 202.372C203.035 201.158 204.648 200.49 206.364 200.49C208.081 200.49 209.694 201.158 210.908 202.372C212.121 203.585 212.789 205.199 212.789 206.915Z" fill="#FEE158"/>
<path d="M212.79 206.915C212.79 208.631 212.122 210.245 210.908 211.458C209.695 212.672 208.081 213.34 206.365 213.34V200.49C208.081 200.49 209.695 201.158 210.908 202.372C212.122 203.585 212.79 205.199 212.79 206.915Z" fill="#FFB528"/>
<path d="M206.365 211.985C209.165 211.985 211.434 209.715 211.434 206.915C211.434 204.115 209.165 201.845 206.365 201.845C203.565 201.845 201.295 204.115 201.295 206.915C201.295 209.715 203.565 211.985 206.365 211.985Z" fill="#FFB528"/>
<path d="M211.435 206.915C211.435 209.71 209.161 211.985 206.365 211.985V201.845C209.161 201.845 211.435 204.12 211.435 206.915Z" fill="#FE8C01"/>
<path d="M208.29 206.837C208.206 206.752 208.114 206.678 208.016 206.615C208.247 206.356 208.388 206.016 208.388 205.642C208.388 205.253 208.235 204.885 207.958 204.608C207.681 204.331 207.314 204.179 206.924 204.179H206.74V203.451H205.988V204.179H204.33V204.932H204.945V208.898H204.33V209.651H205.988V210.378H206.74V209.651H207.125C208.034 209.651 208.774 208.911 208.774 208.002C208.774 207.563 208.602 207.149 208.29 206.837ZM205.698 204.932H206.924C207.113 204.932 207.291 205.006 207.426 205.141C207.561 205.276 207.635 205.454 207.635 205.642C207.635 206.03 207.322 206.346 206.936 206.352H205.698V204.932ZM207.125 208.898H205.698V207.106L206.364 207.106L207.125 207.105C207.363 207.105 207.588 207.199 207.758 207.369C207.928 207.539 208.021 207.764 208.021 208.002C208.021 208.496 207.619 208.898 207.125 208.898Z" fill="#FEE158"/>
<path d="M208.776 208.002C208.776 208.911 208.036 209.651 207.126 209.651H206.742V210.378H206.365V208.898H207.126C207.621 208.898 208.023 208.496 208.023 208.002C208.023 207.764 207.929 207.539 207.759 207.369C207.589 207.199 207.364 207.105 207.126 207.105L206.365 207.106V206.352H206.937C207.324 206.346 207.636 206.03 207.636 205.642C207.636 205.454 207.562 205.276 207.427 205.141C207.292 205.006 207.114 204.932 206.926 204.932H206.365V203.451H206.742V204.179H206.926C207.315 204.179 207.683 204.331 207.96 204.608C208.237 204.885 208.389 205.253 208.389 205.642C208.389 206.016 208.248 206.356 208.018 206.615C208.115 206.678 208.207 206.752 208.291 206.837C208.604 207.149 208.776 207.563 208.776 208.002Z" fill="#FFB528"/>
</g>
<path d="M223.621 210.764H219.483V208.053H223.177V206.902H219.483V204.455H223.537V203.304H218.164V211.915H223.621V210.764ZM228.658 210.74C228.406 210.86 228.154 210.908 227.866 210.908C227.218 210.908 226.799 210.596 226.799 209.72V206.59H228.718V205.559H226.799V203.676H225.587V205.559H224.184V206.59H225.587V209.996C225.587 211.399 226.403 212.035 227.578 212.035C227.962 212.035 228.286 211.975 228.658 211.807V210.74ZM231.085 208.329C231.085 207.202 231.78 206.506 232.608 206.506C233.508 206.506 233.987 207.118 233.987 208.209V211.915H235.199V207.801C235.199 206.278 234.335 205.439 233.028 205.439C232.152 205.439 231.505 205.894 231.085 206.578V203.304H229.874V211.915H231.085V208.329ZM239.422 212.035C240.921 212.035 242.012 211.183 242.324 209.768H241.125C240.921 210.596 240.297 211.087 239.398 211.087C238.33 211.087 237.683 210.332 237.587 209.037H242.324C242.54 206.974 241.281 205.439 239.386 205.439C237.635 205.439 236.351 206.818 236.351 208.701C236.351 210.704 237.587 212.035 239.422 212.035ZM239.362 206.35C240.345 206.35 240.981 207.058 241.041 208.233H237.599C237.731 207.046 238.39 206.35 239.362 206.35ZM244.823 208.665C244.823 207.262 245.819 206.662 247.186 206.734V205.475C246.143 205.475 245.183 206.026 244.739 206.902V205.559H243.612V211.915H244.823V208.665ZM250.736 212.035C252.235 212.035 253.326 211.183 253.638 209.768H252.439C252.235 210.596 251.611 211.087 250.712 211.087C249.644 211.087 248.997 210.332 248.901 209.037H253.638C253.854 206.974 252.595 205.439 250.7 205.439C248.949 205.439 247.665 206.818 247.665 208.701C247.665 210.704 248.901 212.035 250.736 212.035ZM250.676 206.35C251.659 206.35 252.295 207.058 252.355 208.233H248.913C249.045 207.046 249.704 206.35 250.676 206.35ZM258.896 209.3C258.896 210.296 258.236 210.968 257.421 210.968C256.629 210.968 256.077 210.512 256.077 209.408V205.559H254.866V209.648C254.866 211.279 255.754 212.035 257.037 212.035C257.9 212.035 258.644 211.567 258.98 210.908V211.915H260.107V205.559H258.896V209.3ZM263.001 211.915V208.269C263.001 207.202 263.66 206.506 264.5 206.506C265.387 206.506 265.855 207.13 265.855 208.185V211.915H267.066V208.269C267.066 207.202 267.738 206.506 268.566 206.506C269.453 206.506 269.921 207.13 269.921 208.185V211.915H271.132V207.801C271.132 206.29 270.293 205.439 268.985 205.439C268.014 205.439 267.282 205.942 266.839 206.758C266.551 205.918 265.843 205.439 264.908 205.439C264.032 205.439 263.349 205.882 262.917 206.614V205.559H261.789V211.915H263.001Z" fill="black"/>
<circle cx="38.1209" cy="244.608" r="11.565" stroke="#212123" stroke-opacity="0.2" stroke-width="1.71333"/>
<path d="M42.7036 234.035C42.9008 233.58 43.4314 233.368 43.871 233.598C45.4179 234.406 46.7803 235.532 47.8665 236.906C48.9527 238.281 49.7338 239.867 50.1623 241.558C50.2841 242.039 49.9553 242.506 49.467 242.593V242.593C48.9786 242.68 48.5162 242.353 48.3886 241.874C48.0157 240.474 47.3596 239.162 46.4574 238.02C45.5552 236.878 44.4302 235.937 43.1543 235.251C42.7176 235.016 42.5063 234.49 42.7036 234.035V234.035Z" fill="#6F00EB"/>
<path d="M63.0644 250.108V240.349H59.7007V241.62H61.5918V250.108H63.0644ZM68.1904 250.253C70.4569 250.253 71.7129 248.737 71.7129 246.99C71.7129 245.33 70.5436 243.829 68.3925 243.829C67.7284 243.829 67.1077 244.031 66.5591 244.464L66.9922 241.649H71.1499V240.349H65.9383L65.0721 245.792L66.2559 246.167C66.6602 245.46 67.3098 245.099 68.176 245.099C69.4753 245.099 70.1971 245.98 70.1971 246.99C70.1971 248.102 69.533 248.939 68.1904 248.939C67.1077 248.939 66.3137 248.318 66.2126 247.279H64.7545C64.8267 249.011 66.2848 250.253 68.1904 250.253ZM75.6784 246.326C77.4541 246.326 78.7245 244.969 78.7245 243.294C78.7245 241.62 77.4541 240.263 75.6784 240.263C73.9172 240.263 72.6468 241.62 72.6468 243.294C72.6468 244.969 73.9172 246.326 75.6784 246.326ZM77.7573 250.108L83.272 240.349H82.0737L76.559 250.108H77.7573ZM75.6784 245.272C74.7112 245.272 73.8739 244.579 73.8739 243.294C73.8739 241.995 74.7112 241.317 75.6784 241.317C76.6601 241.317 77.4974 241.995 77.4974 243.294C77.4974 244.579 76.6601 245.272 75.6784 245.272ZM84.3114 250.224C86.0871 250.224 87.343 248.881 87.343 247.192C87.343 245.518 86.0871 244.161 84.3114 244.161C82.5357 244.161 81.2797 245.518 81.2797 247.192C81.2797 248.881 82.5357 250.224 84.3114 250.224ZM84.3114 249.17C83.3442 249.17 82.4924 248.477 82.4924 247.192C82.4924 245.907 83.3442 245.229 84.3114 245.229C85.2931 245.229 86.1159 245.907 86.1159 247.192C86.1159 248.477 85.2931 249.17 84.3114 249.17Z" fill="black"/>
<g clip-path="url(#clip2_541_69)">
<path d="M213.121 244.608C213.121 246.325 212.453 247.938 211.24 249.152C210.026 250.365 208.413 251.033 206.696 251.033C204.98 251.033 203.367 250.365 202.153 249.152C200.94 247.938 200.271 246.325 200.271 244.608C200.271 242.892 200.94 241.279 202.153 240.065C203.367 238.852 204.98 238.183 206.696 238.183C208.413 238.183 210.026 238.852 211.24 240.065C212.453 241.279 213.121 242.892 213.121 244.608Z" fill="#FEE158"/>
<path d="M213.122 244.608C213.122 246.325 212.454 247.938 211.24 249.152C210.027 250.365 208.413 251.033 206.697 251.033V238.183C208.413 238.183 210.027 238.852 211.24 240.065C212.454 241.279 213.122 242.892 213.122 244.608Z" fill="#FFB528"/>
<path d="M206.697 249.678C209.497 249.678 211.766 247.408 211.766 244.608C211.766 241.808 209.497 239.539 206.697 239.539C203.897 239.539 201.627 241.808 201.627 244.608C201.627 247.408 203.897 249.678 206.697 249.678Z" fill="#FFB528"/>
<path d="M211.767 244.608C211.767 247.404 209.493 249.678 206.697 249.678V239.539C209.493 239.539 211.767 241.813 211.767 244.608Z" fill="#FE8C01"/>
<path d="M208.622 244.53C208.538 244.446 208.446 244.372 208.348 244.309C208.579 244.05 208.72 243.709 208.72 243.336C208.72 242.946 208.567 242.579 208.29 242.302C208.013 242.025 207.646 241.872 207.256 241.872H207.072V241.145H206.32V241.872H204.662V242.625H205.277V246.591H204.662V247.344H206.32V248.072H207.072V247.344H207.457C208.367 247.344 209.106 246.605 209.106 245.695C209.106 245.256 208.934 244.842 208.622 244.53ZM206.03 242.625H207.256C207.445 242.625 207.623 242.699 207.758 242.834C207.893 242.969 207.967 243.147 207.967 243.336C207.967 243.724 207.655 244.04 207.268 244.046H206.03V242.625ZM207.457 246.591H206.03V244.799L206.696 244.799L207.457 244.799C207.695 244.799 207.92 244.892 208.09 245.063C208.26 245.232 208.353 245.457 208.353 245.695C208.353 246.189 207.951 246.591 207.457 246.591Z" fill="#FEE158"/>
<path d="M209.108 245.695C209.108 246.605 208.368 247.344 207.458 247.344H207.074V248.072H206.697V246.591H207.458C207.953 246.591 208.355 246.189 208.355 245.695C208.355 245.457 208.261 245.232 208.091 245.063C207.921 244.892 207.696 244.799 207.458 244.799L206.697 244.799V244.046H207.269C207.656 244.04 207.968 243.724 207.968 243.336C207.968 243.147 207.894 242.969 207.759 242.834C207.624 242.699 207.446 242.625 207.258 242.625H206.697V241.145H207.074V241.872H207.258C207.647 241.872 208.015 242.025 208.292 242.302C208.569 242.579 208.721 242.946 208.721 243.336C208.721 243.709 208.58 244.05 208.35 244.309C208.447 244.372 208.539 244.446 208.624 244.53C208.936 244.842 209.108 245.256 209.108 245.695Z" fill="#FFB528"/>
</g>
<path d="M223.971 249.608V248.421H220.074V240.997H218.754V249.608H223.971ZM226.646 241.777C226.646 241.309 226.286 240.973 225.77 240.973C225.254 240.973 224.883 241.309 224.883 241.777C224.883 242.232 225.254 242.58 225.77 242.58C226.286 242.58 226.646 242.232 226.646 241.777ZM226.382 249.608V243.252H225.17V249.608H226.382ZM231.649 248.433C231.398 248.553 231.146 248.601 230.858 248.601C230.21 248.601 229.79 248.289 229.79 247.414V244.283H231.709V243.252H229.79V241.369H228.579V243.252H227.176V244.283H228.579V247.689C228.579 249.093 229.395 249.728 230.57 249.728C230.954 249.728 231.278 249.668 231.649 249.5V248.433ZM235.304 249.728C236.803 249.728 237.895 248.877 238.207 247.462H237.007C236.803 248.289 236.18 248.781 235.28 248.781C234.213 248.781 233.565 248.025 233.469 246.73H238.207C238.423 244.667 237.163 243.132 235.268 243.132C233.517 243.132 232.234 244.511 232.234 246.394C232.234 248.397 233.469 249.728 235.304 249.728ZM235.244 244.043C236.228 244.043 236.863 244.751 236.923 245.926H233.481C233.613 244.739 234.273 244.043 235.244 244.043ZM241.884 249.74C243.479 249.74 244.606 248.709 244.822 247.03H243.563C243.419 248.061 242.796 248.661 241.896 248.661C240.853 248.661 240.169 247.785 240.169 246.43C240.169 245.087 240.853 244.199 241.896 244.199C242.784 244.199 243.419 244.811 243.551 245.83H244.822C244.595 244.175 243.455 243.132 241.884 243.132C240.169 243.132 238.922 244.511 238.922 246.43C238.922 248.373 240.145 249.74 241.884 249.74ZM248.646 249.728C250.445 249.728 251.764 248.313 251.764 246.43C251.764 244.547 250.445 243.132 248.646 243.132C246.847 243.132 245.527 244.547 245.527 246.43C245.527 248.313 246.847 249.728 248.646 249.728ZM248.646 248.661C247.602 248.661 246.787 247.821 246.787 246.43C246.787 245.039 247.602 244.211 248.646 244.211C249.689 244.211 250.517 245.039 250.517 246.43C250.517 247.821 249.689 248.661 248.646 248.661ZM254.474 241.777C254.474 241.309 254.114 240.973 253.598 240.973C253.083 240.973 252.711 241.309 252.711 241.777C252.711 242.232 253.083 242.58 253.598 242.58C254.114 242.58 254.474 242.232 254.474 241.777ZM254.21 249.608V243.252H252.999V249.608H254.21ZM257.103 246.022C257.103 244.895 257.799 244.199 258.626 244.199C259.526 244.199 260.005 244.811 260.005 245.902V249.608H261.217V245.495C261.217 243.972 260.353 243.132 259.046 243.132C258.17 243.132 257.451 243.6 257.019 244.307V243.252H255.892V249.608H257.103V246.022Z" fill="black"/>
<defs>
<clipPath id="clip0_541_69">
<rect width="12.85" height="12.85" fill="white" transform="translate(199.938 162.797)"/>
</clipPath>
<clipPath id="clip1_541_69">
<rect width="12.85" height="12.85" fill="white" transform="translate(199.938 200.49)"/>
</clipPath>
<clipPath id="clip2_541_69">
<rect width="12.85" height="12.85" fill="white" transform="translate(200.27 238.183)"/>
</clipPath>
</defs>
</svg>
