<svg width="164" height="157" viewBox="0 0 164 157" fill="none" xmlns="http://www.w3.org/2000/svg">
<rect width="163.243" height="156.58" fill="#E5E2FF"/>
<path d="M29.1562 42.537C32.3545 42.537 34.913 40.4048 35.3928 37.2421H33.3139C32.9586 39.3032 31.2884 40.7779 29.174 40.7779C26.651 40.7779 24.8742 38.7346 24.8742 35.874C24.8742 33.0489 26.651 31.0056 29.174 31.0056C31.2884 31.0056 32.9586 32.4626 33.3139 34.5236H35.3928C34.913 31.3787 32.3545 29.2466 29.1562 29.2466C25.6027 29.2466 22.8486 32.125 22.8486 35.874C22.8486 39.6408 25.6027 42.537 29.1562 42.537ZM42.9854 42.2704H44.4779V36.2294C44.4779 33.9906 43.1275 32.6758 40.7999 32.6758C38.5967 32.6758 37.0864 34.0794 36.9976 36.1938H38.6322C38.6855 34.879 39.4851 34.0972 40.7999 34.0972C42.0437 34.0972 42.7721 34.8612 42.7721 36.2116V36.9045C42.0081 36.8157 41.5639 36.7979 41.0131 36.7979C38.2058 36.7979 36.7311 37.7574 36.7311 39.6053C36.7311 41.3287 38.0103 42.4481 39.9648 42.4481C41.3507 42.4481 42.399 41.8618 42.9854 40.8135V42.2704ZM38.4368 39.552C38.4368 38.4503 39.3252 37.9173 41.1197 37.9173C41.5817 37.9173 42.0792 37.9351 42.7721 38.0239V38.7879C42.7721 40.2271 41.8304 41.1688 40.3202 41.1688C39.1653 41.1688 38.4368 40.5292 38.4368 39.552ZM54.3397 39.4631C54.3397 38.1128 53.4514 37.2954 51.5857 36.9578L49.9866 36.6558C48.8495 36.4426 48.3697 36.0872 48.3697 35.3232C48.3697 34.5059 49.1338 34.0261 50.2709 34.0261C51.5324 34.0261 52.3675 34.6835 52.4741 35.8207H54.1976C54.0377 33.884 52.5097 32.6758 50.2531 32.6758C48.0677 32.6758 46.6285 33.8307 46.6285 35.4831C46.6285 36.9045 47.6057 37.7929 49.347 38.1305L50.875 38.4148C52.0477 38.6458 52.5274 38.9834 52.5274 39.7652C52.5274 40.6536 51.6923 41.0978 50.4308 41.0978C48.9916 41.0978 48.0499 40.3693 47.9788 39.1966H46.2553C46.433 41.2221 47.9078 42.4481 50.3953 42.4481C52.9005 42.4481 54.3397 41.311 54.3397 39.4631ZM58.0936 36.9578C58.0936 35.2877 59.1242 34.2571 60.3502 34.2571C61.6828 34.2571 62.3935 35.1633 62.3935 36.7802V42.2704H64.188V36.1761C64.188 33.9195 62.9087 32.6758 60.972 32.6758C59.675 32.6758 58.7155 33.351 58.0936 34.3637V29.5131H56.2991V42.2704H58.0936V36.9578ZM75.5617 37.562C75.5617 34.7013 73.9093 32.6758 71.3862 32.6758C70.107 32.6758 69.0231 33.3154 68.3657 34.4703V29.5131H66.5711V42.2704H68.2413V40.5825C68.9165 41.7729 70.0537 42.4481 71.3862 42.4481C73.9271 42.4481 75.5617 40.387 75.5617 37.562ZM73.6961 37.562C73.6961 39.6586 72.5767 40.849 71.0309 40.849C69.5029 40.849 68.3657 39.6053 68.3657 37.5264C68.3657 35.412 69.5384 34.2571 71.0309 34.2571C72.5767 34.2571 73.6961 35.4298 73.6961 37.562ZM83.0846 42.2704H84.5771V36.2294C84.5771 33.9906 83.2268 32.6758 80.8992 32.6758C78.6959 32.6758 77.1857 34.0794 77.0968 36.1938H78.7315C78.7848 34.879 79.5843 34.0972 80.8992 34.0972C82.1429 34.0972 82.8714 34.8612 82.8714 36.2116V36.9045C82.1074 36.8157 81.6632 36.7979 81.1124 36.7979C78.305 36.7979 76.8303 37.7574 76.8303 39.6053C76.8303 41.3287 78.1096 42.4481 80.0641 42.4481C81.45 42.4481 82.4983 41.8618 83.0846 40.8135V42.2704ZM78.536 39.552C78.536 38.4503 79.4244 37.9173 81.219 37.9173C81.6809 37.9173 82.1784 37.9351 82.8714 38.0239V38.7879C82.8714 40.2271 81.9297 41.1688 80.4194 41.1688C79.2645 41.1688 78.536 40.5292 78.536 39.552ZM90.69 42.4659C93.0531 42.4659 94.7233 40.9379 95.0431 38.4503H93.1775C92.9643 39.9784 92.0403 40.8668 90.7077 40.8668C89.1619 40.8668 88.1492 39.5697 88.1492 37.562C88.1492 35.5719 89.1619 34.2571 90.7077 34.2571C92.0226 34.2571 92.9643 35.1633 93.1597 36.6736H95.0431C94.7055 34.2216 93.0176 32.6758 90.69 32.6758C88.1492 32.6758 86.3013 34.7191 86.3013 37.562C86.3013 40.4404 88.1136 42.4659 90.69 42.4659ZM98.644 42.2704V37.8107L102.891 42.2704H105.2L100.439 37.4198L104.792 32.8535H102.677L98.644 37.0644V29.5131H96.8495V42.2704H98.644Z" fill="black"/>
<path d="M28.3437 75.6252V74.186C30.8667 73.9906 32.377 72.4803 32.377 70.3659C32.377 68.5536 31.1155 67.5408 29.0189 67.0966L27.2421 66.7235C26.4425 66.5636 25.714 66.1905 25.714 65.3731C25.714 64.4492 26.4781 63.8629 27.6152 63.8629C28.8412 63.8629 29.6763 64.6447 29.7474 65.8173H32.2171C32.0572 63.6497 30.5292 62.1927 28.3437 61.9084V60.4159H26.7268V61.9084C24.648 62.2105 23.2088 63.6497 23.2088 65.5686C23.2088 67.7007 24.6835 68.5181 26.407 68.909L28.2193 69.2821C29.1255 69.4775 29.7474 69.9217 29.7474 70.6857C29.7474 71.663 28.8057 72.2138 27.5797 72.2138C26.1049 72.2138 25.2699 71.432 25.2343 70.1705H22.7646C22.9245 72.3559 24.3815 73.8484 26.7268 74.1505V75.6252H28.3437ZM38.1405 74.0439V62.0328H33.3964V64.1649H35.6707V74.0439H38.1405ZM40.2615 68.0561C40.2615 72.0183 41.8962 74.2216 44.8989 74.2216C47.9017 74.2216 49.5541 72.0183 49.5541 68.0561C49.5541 64.0761 47.8662 61.8551 44.8989 61.8551C41.9317 61.8551 40.2615 64.0761 40.2615 68.0561ZM42.8023 68.0561C42.8023 65.462 43.5486 64.0583 44.8989 64.0583C46.2671 64.0583 47.0133 65.462 47.0133 68.0561C47.0133 70.6324 46.2671 72.0183 44.8989 72.0183C43.5131 72.0183 42.8023 70.6324 42.8023 68.0561ZM51.1756 68.0561C51.1756 72.0183 52.8102 74.2216 55.813 74.2216C58.8158 74.2216 60.4682 72.0183 60.4682 68.0561C60.4682 64.0761 58.7803 61.8551 55.813 61.8551C52.8458 61.8551 51.1756 64.0761 51.1756 68.0561ZM53.7164 68.0561C53.7164 65.462 54.4627 64.0583 55.813 64.0583C57.1812 64.0583 57.9274 65.462 57.9274 68.0561C57.9274 70.6324 57.1812 72.0183 55.813 72.0183C54.4271 72.0183 53.7164 70.6324 53.7164 68.0561ZM62.0897 68.0561C62.0897 72.0183 63.7243 74.2216 66.7271 74.2216C69.7299 74.2216 71.3823 72.0183 71.3823 68.0561C71.3823 64.0761 69.6943 61.8551 66.7271 61.8551C63.7599 61.8551 62.0897 64.0761 62.0897 68.0561ZM64.6305 68.0561C64.6305 65.462 65.3767 64.0583 66.7271 64.0583C68.0952 64.0583 68.8415 65.462 68.8415 68.0561C68.8415 70.6324 68.0952 72.0183 66.7271 72.0183C65.3412 72.0183 64.6305 70.6324 64.6305 68.0561Z" fill="black"/>
<path d="M88.668 70.8312V68.1127H91.3732V66.9534H88.668V64.2615H87.4154V66.9534H84.7102V68.1127H87.4154V70.8312H88.668ZM99.6507 70.0583V68.8856H98.4247V63.0356H97.3853L92.7478 69.1122V70.0583H97.0788V72.0439H98.4247V70.0583H99.6507ZM94.2537 68.8856L97.0788 65.0744V68.8856H94.2537ZM103.771 72.1771C105.863 72.1771 107.023 70.7779 107.023 69.1655C107.023 67.633 105.943 66.2471 103.958 66.2471C103.345 66.2471 102.772 66.4337 102.265 66.8334L102.665 64.2349H106.503V63.0356H101.692L100.893 68.0594L101.986 68.4059C102.359 67.7529 102.958 67.4198 103.758 67.4198C104.957 67.4198 105.624 68.2327 105.624 69.1655C105.624 70.1916 105.011 70.9645 103.771 70.9645C102.772 70.9645 102.039 70.3915 101.946 69.432H100.6C100.666 71.0311 102.012 72.1771 103.771 72.1771ZM110.683 68.5525C112.322 68.5525 113.495 67.2999 113.495 65.754C113.495 64.2082 112.322 62.9556 110.683 62.9556C109.058 62.9556 107.885 64.2082 107.885 65.754C107.885 67.2999 109.058 68.5525 110.683 68.5525ZM112.602 72.0439L117.693 63.0356H116.587L111.496 72.0439H112.602ZM110.683 67.5797C109.79 67.5797 109.018 66.9401 109.018 65.754C109.018 64.5547 109.79 63.9284 110.683 63.9284C111.589 63.9284 112.362 64.5547 112.362 65.754C112.362 66.9401 111.589 67.5797 110.683 67.5797ZM118.652 72.1505C120.291 72.1505 121.451 70.9112 121.451 69.352C121.451 67.8062 120.291 66.5536 118.652 66.5536C117.013 66.5536 115.854 67.8062 115.854 69.352C115.854 70.9112 117.013 72.1505 118.652 72.1505ZM118.652 71.1777C117.759 71.1777 116.973 70.5381 116.973 69.352C116.973 68.166 117.759 67.5397 118.652 67.5397C119.558 67.5397 120.318 68.166 120.318 69.352C120.318 70.5381 119.558 71.1777 118.652 71.1777Z" fill="#1CA820"/>
<path d="M28.2878 108.603C31.0863 108.603 33.325 106.737 33.7448 103.97H31.9258C31.6149 105.773 30.1535 107.064 28.3034 107.064C26.0957 107.064 24.541 105.276 24.541 102.773C24.541 100.301 26.0957 98.5131 28.3034 98.5131C30.1535 98.5131 31.6149 99.7879 31.9258 101.591H33.7448C33.325 98.8395 31.0863 96.9739 28.2878 96.9739C25.1784 96.9739 22.7687 99.4925 22.7687 102.773C22.7687 106.069 25.1784 108.603 28.2878 108.603ZM38.8492 108.525C41.1812 108.525 42.8914 106.691 42.8914 104.25C42.8914 101.809 41.1812 99.9745 38.8492 99.9745C36.5171 99.9745 34.807 101.809 34.807 104.25C34.807 106.691 36.5171 108.525 38.8492 108.525ZM38.8492 107.142C37.4966 107.142 36.4394 106.053 36.4394 104.25C36.4394 102.446 37.4966 101.374 38.8492 101.374C40.2018 101.374 41.2745 102.446 41.2745 104.25C41.2745 106.053 40.2018 107.142 38.8492 107.142ZM46.0623 108.37V103.644C46.0623 102.26 46.9174 101.358 48.0057 101.358C49.1562 101.358 49.7625 102.167 49.7625 103.535V108.37H51.3327V103.644C51.3327 102.26 52.2034 101.358 53.2761 101.358C54.4266 101.358 55.0329 102.167 55.0329 103.535V108.37H56.6031V103.037C56.6031 101.078 55.5149 99.9745 53.8202 99.9745C52.5609 99.9745 51.6126 100.627 51.0373 101.685C50.6642 100.596 49.747 99.9745 48.5343 99.9745C47.3994 99.9745 46.5132 100.55 45.9535 101.498V100.13H44.4921V108.37H46.0623ZM66.5697 104.25C66.5697 101.762 65.1238 99.9745 62.9317 99.9745C61.7657 99.9745 60.7551 100.581 60.1644 101.638V100.13H58.703V111.37H60.2732V106.971C60.864 107.966 61.8123 108.525 62.9317 108.525C65.1394 108.525 66.5697 106.737 66.5697 104.25ZM64.9373 104.25C64.9373 106.1 63.9578 107.126 62.6052 107.126C61.2837 107.126 60.2732 106.069 60.2732 104.25C60.2732 102.4 61.2993 101.358 62.6052 101.358C63.9578 101.358 64.9373 102.4 64.9373 104.25ZM73.1522 108.37H74.4582V103.084C74.4582 101.125 73.2766 99.9745 71.24 99.9745C69.3121 99.9745 67.9907 101.203 67.9129 103.053H69.3432C69.3899 101.902 70.0895 101.218 71.24 101.218C72.3282 101.218 72.9657 101.887 72.9657 103.068V103.675C72.2972 103.597 71.9085 103.581 71.4265 103.581C68.9701 103.581 67.6797 104.421 67.6797 106.038C67.6797 107.546 68.7991 108.525 70.5093 108.525C71.7219 108.525 72.6392 108.012 73.1522 107.095V108.37ZM69.1722 105.991C69.1722 105.027 69.9496 104.561 71.5198 104.561C71.924 104.561 72.3593 104.576 72.9657 104.654V105.323C72.9657 106.582 72.1417 107.406 70.8202 107.406C69.8096 107.406 69.1722 106.846 69.1722 105.991ZM78.1279 104.157C78.1279 102.338 79.4182 101.56 81.1906 101.654V100.021C79.838 100.021 78.5943 100.736 78.019 101.871V100.13H76.5576V108.37H78.1279V104.157ZM85.7921 108.525C87.7355 108.525 89.1503 107.421 89.5545 105.587H87.9998C87.7355 106.66 86.927 107.297 85.761 107.297C84.3774 107.297 83.5378 106.318 83.4134 104.639H89.5545C89.8343 101.964 88.2019 99.9745 85.7455 99.9745C83.4756 99.9745 81.8121 101.762 81.8121 104.203C81.8121 106.8 83.4134 108.525 85.7921 108.525ZM85.7144 101.156C86.9892 101.156 87.8132 102.073 87.891 103.597H83.429C83.6 102.058 84.4551 101.156 85.7144 101.156ZM90.4813 104.25C90.4813 106.722 91.9117 108.525 94.1349 108.525C95.3009 108.525 96.2959 107.934 96.8867 106.893V108.37H98.3481V97.2071H96.7778V101.545C96.2026 100.534 95.2387 99.9745 94.1349 99.9745C91.9117 99.9745 90.4813 101.747 90.4813 104.25ZM92.1138 104.25C92.1138 102.384 93.0777 101.358 94.4458 101.358C95.7517 101.358 96.7778 102.369 96.7778 104.219C96.7778 106.038 95.7828 107.126 94.4458 107.126C93.0777 107.126 92.1138 106.084 92.1138 104.25ZM108.428 106.846C108.102 107.002 107.775 107.064 107.402 107.064C106.563 107.064 106.019 106.66 106.019 105.525V101.467H108.506V100.13H106.019V97.6891H104.448V100.13H102.629V101.467H104.448V105.882C104.448 107.701 105.506 108.525 107.029 108.525C107.527 108.525 107.946 108.448 108.428 108.23V106.846ZM113.228 108.525C115.56 108.525 117.271 106.691 117.271 104.25C117.271 101.809 115.56 99.9745 113.228 99.9745C110.896 99.9745 109.186 101.809 109.186 104.25C109.186 106.691 110.896 108.525 113.228 108.525ZM113.228 107.142C111.876 107.142 110.819 106.053 110.819 104.25C110.819 102.446 111.876 101.374 113.228 101.374C114.581 101.374 115.654 102.446 115.654 104.25C115.654 106.053 114.581 107.142 113.228 107.142ZM27.355 130.753V129.51C29.5316 129.37 30.7753 128.033 30.7753 126.323C30.7753 124.675 29.656 123.913 27.9613 123.555L26.5621 123.26C25.6449 123.058 24.8209 122.7 24.8209 121.705C24.8209 120.741 25.5827 120.011 26.8575 120.011C28.1168 120.011 28.9874 120.866 29.0652 122.063H30.651C30.5266 120.182 29.174 118.938 27.355 118.736V117.445H26.2667V118.736C24.4633 118.953 23.2195 120.197 23.2195 121.814C23.2195 123.695 24.5721 124.348 25.9869 124.644L27.3861 124.954C28.5055 125.203 29.0963 125.639 29.0963 126.525C29.0963 127.597 28.1013 128.219 26.842 128.219C25.3184 128.219 24.5255 127.395 24.4477 126.105H22.862C22.9708 127.971 24.199 129.277 26.2667 129.494V130.753H27.355ZM39.9886 126.416C39.9886 125.141 39.1335 124.302 38.0297 123.897C38.9003 123.509 39.5844 122.685 39.5844 121.612C39.5844 119.902 38.1385 118.705 36.1485 118.705C34.1274 118.705 32.6971 119.902 32.6971 121.612C32.6971 122.685 33.3656 123.509 34.2518 123.897C33.1479 124.302 32.2773 125.141 32.2773 126.416C32.2773 128.25 33.8476 129.51 36.1485 129.51C38.4339 129.51 39.9886 128.25 39.9886 126.416ZM34.314 121.659C34.314 120.617 35.0602 119.964 36.1485 119.964C37.2212 119.964 37.9675 120.617 37.9675 121.659C37.9675 122.685 37.2212 123.307 36.1485 123.307C35.0602 123.307 34.314 122.685 34.314 121.659ZM33.9253 126.385C33.9253 125.25 34.827 124.566 36.1485 124.566C37.4544 124.566 38.3717 125.25 38.3717 126.385C38.3717 127.551 37.4544 128.25 36.1485 128.25C34.827 128.25 33.9253 127.551 33.9253 126.385ZM44.9785 118.72C42.7398 118.72 41.1229 120.275 41.1229 122.265C41.1229 124.286 42.6154 125.67 44.6521 125.67C44.9474 125.67 45.2584 125.623 45.5693 125.514L42.4755 129.37H44.2789L47.435 125.452C48.3678 124.302 48.8186 123.478 48.8186 122.187C48.8186 120.275 47.2173 118.72 44.9785 118.72ZM44.963 120.042C46.1912 120.042 47.1862 120.912 47.1862 122.234C47.1862 123.695 46.1912 124.441 44.963 124.441C43.7192 124.441 42.7553 123.602 42.7553 122.218C42.7553 120.912 43.7192 120.042 44.963 120.042ZM50.0716 124.13C50.0716 127.613 51.4242 129.525 53.9428 129.525C56.4614 129.525 57.8295 127.613 57.8295 124.13C57.8295 120.648 56.4303 118.705 53.9428 118.705C51.4553 118.705 50.0716 120.648 50.0716 124.13ZM51.6885 124.13C51.6885 121.503 52.4969 120.119 53.9428 120.119C55.4198 120.119 56.2126 121.503 56.2126 124.13C56.2126 126.742 55.4198 128.111 53.9428 128.111C52.4658 128.111 51.6885 126.727 51.6885 124.13ZM64.5095 129.37V118.207H62.9237V129.37H64.5095ZM71.6795 129.37H72.9855V124.084C72.9855 122.125 71.8039 120.974 69.7673 120.974C67.8394 120.974 66.5179 122.203 66.4402 124.053H67.8705C67.9172 122.902 68.6168 122.218 69.7673 122.218C70.8555 122.218 71.493 122.887 71.493 124.068V124.675C70.8244 124.597 70.4358 124.581 69.9538 124.581C67.4974 124.581 66.207 125.421 66.207 127.038C66.207 128.546 67.3264 129.525 69.0366 129.525C70.2492 129.525 71.1665 129.012 71.6795 128.095V129.37ZM67.6995 126.991C67.6995 126.027 68.4769 125.561 70.0471 125.561C70.4513 125.561 70.8866 125.576 71.493 125.654V126.323C71.493 127.582 70.669 128.406 69.3475 128.406C68.3369 128.406 67.6995 127.846 67.6995 126.991ZM81.6146 126.913C81.6146 125.732 80.8373 125.017 79.2048 124.721L77.8056 124.457C76.8106 124.27 76.3908 123.959 76.3908 123.291C76.3908 122.576 77.0594 122.156 78.0544 122.156C79.1582 122.156 79.8889 122.731 79.9822 123.726H81.4902C81.3503 122.032 80.0133 120.974 78.0388 120.974C76.1266 120.974 74.8673 121.985 74.8673 123.431C74.8673 124.675 75.7223 125.452 77.2459 125.747L78.583 125.996C79.6091 126.198 80.0288 126.494 80.0288 127.178C80.0288 127.955 79.2981 128.344 78.1943 128.344C76.935 128.344 76.111 127.706 76.0488 126.68H74.5408C74.6962 128.453 75.9866 129.525 78.1632 129.525C80.3553 129.525 81.6146 128.53 81.6146 126.913ZM87.8713 127.846C87.5448 128.002 87.2183 128.064 86.8452 128.064C86.0056 128.064 85.4615 127.66 85.4615 126.525V122.467H87.949V121.13H85.4615V118.689H83.8913V121.13H82.0723V122.467H83.8913V126.882C83.8913 128.701 84.9485 129.525 86.4721 129.525C86.9696 129.525 87.3893 129.448 87.8713 129.23V127.846ZM94.2669 129.37V124.644C94.2669 123.26 95.122 122.358 96.2103 122.358C97.3607 122.358 97.9671 123.167 97.9671 124.535V129.37H99.5373V124.644C99.5373 123.26 100.408 122.358 101.481 122.358C102.631 122.358 103.237 123.167 103.237 124.535V129.37H104.808V124.037C104.808 122.078 103.719 120.974 102.025 120.974C100.766 120.974 99.8171 121.627 99.2419 122.685C98.8688 121.596 97.9515 120.974 96.7389 120.974C95.6039 120.974 94.7178 121.55 94.1581 122.498V121.13H92.6967V129.37H94.2669ZM110.359 129.525C112.691 129.525 114.401 127.691 114.401 125.25C114.401 122.809 112.691 120.974 110.359 120.974C108.027 120.974 106.317 122.809 106.317 125.25C106.317 127.691 108.027 129.525 110.359 129.525ZM110.359 128.142C109.006 128.142 107.949 127.053 107.949 125.25C107.949 123.446 109.006 122.374 110.359 122.374C111.712 122.374 112.784 123.446 112.784 125.25C112.784 127.053 111.712 128.142 110.359 128.142ZM117.572 124.721C117.572 123.26 118.474 122.358 119.547 122.358C120.713 122.358 121.334 123.151 121.334 124.566V129.37H122.905V124.037C122.905 122.063 121.785 120.974 120.091 120.974C118.956 120.974 118.023 121.581 117.463 122.498V121.13H116.002V129.37H117.572V124.721ZM129.608 127.846C129.282 128.002 128.955 128.064 128.582 128.064C127.742 128.064 127.198 127.66 127.198 126.525V122.467H129.686V121.13H127.198V118.689H125.628V121.13H123.809V122.467H125.628V126.882C125.628 128.701 126.685 129.525 128.209 129.525C128.706 129.525 129.126 129.448 129.608 129.23V127.846ZM132.755 124.721C132.755 123.26 133.656 122.358 134.729 122.358C135.895 122.358 136.517 123.151 136.517 124.566V129.37H138.087V124.037C138.087 122.063 136.968 120.974 135.273 120.974C134.138 120.974 133.299 121.565 132.755 122.451V118.207H131.184V129.37H132.755V124.721Z" fill="#212123" fill-opacity="0.6"/>
</svg>
