<svg width="173" height="206" viewBox="0 0 173 206" fill="none" xmlns="http://www.w3.org/2000/svg">
<rect width="172.716" height="206" fill="white"/>
<path d="M38.0088 49.834H40.2061C40.1357 50.6719 39.9014 51.4189 39.5029 52.0752C39.1045 52.7256 38.5449 53.2383 37.8242 53.6133C37.1035 53.9883 36.2275 54.1758 35.1963 54.1758C34.4053 54.1758 33.6934 54.0352 33.0605 53.7539C32.4277 53.4668 31.8857 53.0625 31.4346 52.541C30.9834 52.0137 30.6377 51.3779 30.3975 50.6338C30.1631 49.8896 30.0459 49.0576 30.0459 48.1377V47.0742C30.0459 46.1543 30.166 45.3223 30.4062 44.5781C30.6523 43.834 31.0039 43.1982 31.4609 42.6709C31.918 42.1377 32.4658 41.7305 33.1045 41.4492C33.749 41.168 34.4727 41.0273 35.2754 41.0273C36.2949 41.0273 37.1562 41.2148 37.8594 41.5898C38.5625 41.9648 39.1074 42.4834 39.4941 43.1455C39.8867 43.8076 40.127 44.5664 40.2148 45.4219H38.0176C37.959 44.8711 37.8301 44.3994 37.6309 44.0068C37.4375 43.6143 37.1504 43.3154 36.7695 43.1104C36.3887 42.8994 35.8906 42.7939 35.2754 42.7939C34.7715 42.7939 34.332 42.8877 33.957 43.0752C33.582 43.2627 33.2686 43.5381 33.0166 43.9014C32.7646 44.2646 32.5742 44.7129 32.4453 45.2461C32.3223 45.7734 32.2607 46.377 32.2607 47.0566V48.1377C32.2607 48.7822 32.3164 49.3682 32.4277 49.8955C32.5449 50.417 32.7207 50.8652 32.9551 51.2402C33.1953 51.6152 33.5 51.9053 33.8691 52.1104C34.2383 52.3154 34.6807 52.418 35.1963 52.418C35.8232 52.418 36.3301 52.3184 36.7168 52.1191C37.1094 51.9199 37.4053 51.6299 37.6045 51.249C37.8096 50.8623 37.9443 50.3906 38.0088 49.834ZM47.3604 52.0928V47.5576C47.3604 47.2178 47.2988 46.9248 47.1758 46.6787C47.0527 46.4326 46.8652 46.2422 46.6133 46.1074C46.3672 45.9727 46.0566 45.9053 45.6816 45.9053C45.3359 45.9053 45.0371 45.9639 44.7852 46.0811C44.5332 46.1982 44.3369 46.3564 44.1963 46.5557C44.0557 46.7549 43.9854 46.9805 43.9854 47.2324H41.876C41.876 46.8574 41.9668 46.4941 42.1484 46.1426C42.3301 45.791 42.5938 45.4775 42.9395 45.2021C43.2852 44.9268 43.6982 44.71 44.1787 44.5518C44.6592 44.3936 45.1982 44.3145 45.7959 44.3145C46.5107 44.3145 47.1436 44.4346 47.6943 44.6748C48.251 44.915 48.6875 45.2783 49.0039 45.7646C49.3262 46.2451 49.4873 46.8486 49.4873 47.5752V51.8027C49.4873 52.2363 49.5166 52.626 49.5752 52.9717C49.6396 53.3115 49.7305 53.6074 49.8477 53.8594V54H47.6768C47.5771 53.7715 47.498 53.4814 47.4395 53.1299C47.3867 52.7725 47.3604 52.4268 47.3604 52.0928ZM47.668 48.2168L47.6855 49.5264H46.165C45.7725 49.5264 45.4268 49.5645 45.1279 49.6406C44.8291 49.7109 44.5801 49.8164 44.3809 49.957C44.1816 50.0977 44.0322 50.2676 43.9326 50.4668C43.833 50.666 43.7832 50.8916 43.7832 51.1436C43.7832 51.3955 43.8418 51.627 43.959 51.8379C44.0762 52.043 44.2461 52.2041 44.4688 52.3213C44.6973 52.4385 44.9727 52.4971 45.2949 52.4971C45.7285 52.4971 46.1064 52.4092 46.4287 52.2334C46.7568 52.0518 47.0146 51.832 47.2021 51.5742C47.3896 51.3105 47.4893 51.0615 47.501 50.8271L48.1865 51.7676C48.1162 52.0078 47.9961 52.2656 47.8262 52.541C47.6562 52.8164 47.4336 53.0801 47.1582 53.332C46.8887 53.5781 46.5635 53.7803 46.1826 53.9385C45.8076 54.0967 45.374 54.1758 44.8818 54.1758C44.2607 54.1758 43.707 54.0527 43.2207 53.8066C42.7344 53.5547 42.3535 53.2178 42.0781 52.7959C41.8027 52.3682 41.665 51.8848 41.665 51.3457C41.665 50.8418 41.7588 50.3965 41.9463 50.0098C42.1396 49.6172 42.4209 49.2891 42.79 49.0254C43.165 48.7617 43.6221 48.5625 44.1611 48.4277C44.7002 48.2871 45.3154 48.2168 46.0068 48.2168H47.668ZM57.0371 51.4248C57.0371 51.2139 56.9844 51.0234 56.8789 50.8535C56.7734 50.6777 56.5713 50.5195 56.2725 50.3789C55.9795 50.2383 55.5459 50.1094 54.9717 49.9922C54.4678 49.8809 54.0049 49.749 53.583 49.5967C53.167 49.4385 52.8096 49.248 52.5107 49.0254C52.2119 48.8027 51.9805 48.5391 51.8164 48.2344C51.6523 47.9297 51.5703 47.5781 51.5703 47.1797C51.5703 46.793 51.6553 46.4268 51.8252 46.0811C51.9951 45.7354 52.2383 45.4307 52.5547 45.167C52.8711 44.9033 53.2549 44.6953 53.7061 44.543C54.1631 44.3906 54.6729 44.3145 55.2354 44.3145C56.0322 44.3145 56.7148 44.4492 57.2832 44.7188C57.8574 44.9824 58.2969 45.3428 58.6016 45.7998C58.9062 46.251 59.0586 46.7607 59.0586 47.3291H56.9404C56.9404 47.0771 56.876 46.8428 56.7471 46.626C56.624 46.4033 56.4365 46.2246 56.1846 46.0898C55.9326 45.9492 55.6162 45.8789 55.2354 45.8789C54.8721 45.8789 54.5703 45.9375 54.3301 46.0547C54.0957 46.166 53.9199 46.3125 53.8027 46.4941C53.6914 46.6758 53.6357 46.875 53.6357 47.0918C53.6357 47.25 53.665 47.3936 53.7236 47.5225C53.7881 47.6455 53.8936 47.7598 54.04 47.8652C54.1865 47.9648 54.3857 48.0586 54.6377 48.1465C54.8955 48.2344 55.2178 48.3193 55.6045 48.4014C56.3311 48.5537 56.9551 48.75 57.4766 48.9902C58.0039 49.2246 58.4082 49.5293 58.6895 49.9043C58.9707 50.2734 59.1113 50.7422 59.1113 51.3105C59.1113 51.7324 59.0205 52.1191 58.8389 52.4707C58.6631 52.8164 58.4053 53.1182 58.0654 53.376C57.7256 53.6279 57.3184 53.8242 56.8438 53.9648C56.375 54.1055 55.8477 54.1758 55.2617 54.1758C54.4004 54.1758 53.6709 54.0234 53.0732 53.7188C52.4756 53.4082 52.0215 53.0127 51.7109 52.5322C51.4062 52.0459 51.2539 51.542 51.2539 51.0205H53.3018C53.3252 51.4131 53.4336 51.7266 53.627 51.9609C53.8262 52.1895 54.0723 52.3564 54.3652 52.4619C54.6641 52.5615 54.9717 52.6113 55.2881 52.6113C55.6689 52.6113 55.9883 52.5615 56.2461 52.4619C56.5039 52.3564 56.7002 52.2158 56.835 52.04C56.9697 51.8584 57.0371 51.6533 57.0371 51.4248ZM63.0576 40.5V54H60.9482V40.5H63.0576ZM62.6885 48.8936L62.0029 48.8848C62.0088 48.2285 62.0996 47.6221 62.2754 47.0654C62.457 46.5088 62.709 46.0254 63.0312 45.6152C63.3594 45.1992 63.752 44.8799 64.209 44.6572C64.666 44.4287 65.1729 44.3145 65.7295 44.3145C66.1982 44.3145 66.6201 44.3789 66.9951 44.5078C67.376 44.6367 67.7041 44.8447 67.9795 45.1318C68.2549 45.4131 68.4629 45.7822 68.6035 46.2393C68.75 46.6904 68.8232 47.2412 68.8232 47.8916V54H66.6963V47.874C66.6963 47.417 66.6289 47.0537 66.4941 46.7842C66.3652 46.5146 66.1748 46.3213 65.9229 46.2041C65.6709 46.0811 65.3633 46.0195 65 46.0195C64.6191 46.0195 64.2822 46.0957 63.9893 46.248C63.7021 46.4004 63.4619 46.6084 63.2686 46.8721C63.0752 47.1357 62.9287 47.4404 62.8291 47.7861C62.7354 48.1318 62.6885 48.501 62.6885 48.8936ZM73.833 54H71.7148V43.6377C71.7148 42.917 71.8555 42.3105 72.1367 41.8184C72.4238 41.3262 72.8369 40.9541 73.376 40.7021C73.915 40.4443 74.5654 40.3154 75.3271 40.3154C75.6318 40.3154 76.0127 40.3359 76.4697 40.377C76.9326 40.418 77.4131 40.4707 77.9111 40.5352C78.4092 40.5938 78.8662 40.6553 79.2822 40.7197L78.3682 42.3457C77.8232 42.2461 77.3164 42.1699 76.8477 42.1172C76.3789 42.0586 75.9541 42.0293 75.5732 42.0293C75.1982 42.0293 74.8818 42.0938 74.624 42.2227C74.3662 42.3457 74.1699 42.5273 74.0352 42.7676C73.9004 43.002 73.833 43.292 73.833 43.6377V54ZM77.1641 54V40.7197H79.2822V54H77.1641ZM75.793 44.4902V46.0371H70.2559V44.4902H75.793ZM81.2334 49.3506V49.1484C81.2334 48.4629 81.333 47.8271 81.5322 47.2412C81.7314 46.6494 82.0186 46.1367 82.3936 45.7031C82.7744 45.2637 83.2373 44.9238 83.7822 44.6836C84.333 44.4375 84.9541 44.3145 85.6455 44.3145C86.3428 44.3145 86.9639 44.4375 87.5088 44.6836C88.0596 44.9238 88.5254 45.2637 88.9062 45.7031C89.2871 46.1367 89.5771 46.6494 89.7764 47.2412C89.9756 47.8271 90.0752 48.4629 90.0752 49.1484V49.3506C90.0752 50.0361 89.9756 50.6719 89.7764 51.2578C89.5771 51.8438 89.2871 52.3564 88.9062 52.7959C88.5254 53.2295 88.0625 53.5693 87.5176 53.8154C86.9727 54.0557 86.3545 54.1758 85.6631 54.1758C84.9658 54.1758 84.3418 54.0557 83.791 53.8154C83.2461 53.5693 82.7832 53.2295 82.4023 52.7959C82.0215 52.3564 81.7314 51.8438 81.5322 51.2578C81.333 50.6719 81.2334 50.0361 81.2334 49.3506ZM83.3516 49.1484V49.3506C83.3516 49.7783 83.3955 50.1826 83.4834 50.5635C83.5713 50.9443 83.709 51.2783 83.8965 51.5654C84.084 51.8525 84.3242 52.0781 84.6172 52.2422C84.9102 52.4062 85.2588 52.4883 85.6631 52.4883C86.0557 52.4883 86.3955 52.4062 86.6826 52.2422C86.9756 52.0781 87.2158 51.8525 87.4033 51.5654C87.5908 51.2783 87.7285 50.9443 87.8164 50.5635C87.9102 50.1826 87.957 49.7783 87.957 49.3506V49.1484C87.957 48.7266 87.9102 48.3281 87.8164 47.9531C87.7285 47.5723 87.5879 47.2354 87.3945 46.9424C87.207 46.6494 86.9668 46.4209 86.6738 46.2568C86.3867 46.0869 86.0439 46.002 85.6455 46.002C85.2471 46.002 84.9014 46.0869 84.6084 46.2568C84.3213 46.4209 84.084 46.6494 83.8965 46.9424C83.709 47.2354 83.5713 47.5723 83.4834 47.9531C83.3955 48.3281 83.3516 48.7266 83.3516 49.1484ZM94.4346 51.8906L96.6318 44.4902H97.9854L97.6162 46.7051L95.4014 54H94.1885L94.4346 51.8906ZM93.1426 44.4902L94.8564 51.9258L94.9971 54H93.6436L91.0684 44.4902H93.1426ZM100.042 51.8379L101.703 44.4902H103.769L101.202 54H99.8486L100.042 51.8379ZM98.2139 44.4902L100.385 51.8027L100.657 54H99.4443L97.2031 46.6963L96.834 44.4902H98.2139ZM114.887 42.9082L111.063 54H108.752L113.568 41.2031H115.045L114.887 42.9082ZM118.086 54L114.254 42.9082L114.087 41.2031H115.572L120.406 54H118.086ZM117.901 49.2539V51.0029H110.94V49.2539H117.901ZM125.486 51.6621L128.853 41.2031H131.287L126.699 54H125.056L125.486 51.6621ZM122.375 41.2031L125.715 51.6621L126.172 54H124.52L119.949 41.2031H122.375ZM142.423 47.4609V52.3477C142.241 52.5879 141.957 52.8516 141.57 53.1387C141.189 53.4199 140.683 53.6631 140.05 53.8682C139.417 54.0732 138.629 54.1758 137.686 54.1758C136.883 54.1758 136.147 54.041 135.479 53.7715C134.812 53.4961 134.234 53.0947 133.748 52.5674C133.268 52.04 132.896 51.3984 132.632 50.6426C132.368 49.8809 132.236 49.0137 132.236 48.041V47.1533C132.236 46.1865 132.356 45.3252 132.597 44.5693C132.843 43.8076 133.194 43.1631 133.651 42.6357C134.108 42.1084 134.659 41.71 135.304 41.4404C135.954 41.165 136.689 41.0273 137.51 41.0273C138.559 41.0273 139.426 41.2031 140.111 41.5547C140.803 41.9004 141.336 42.3809 141.711 42.9961C142.086 43.6113 142.323 44.3145 142.423 45.1055H140.261C140.19 44.6602 140.053 44.2617 139.848 43.9102C139.648 43.5586 139.361 43.2832 138.986 43.084C138.617 42.8789 138.137 42.7764 137.545 42.7764C137.035 42.7764 136.587 42.873 136.2 43.0664C135.813 43.2598 135.491 43.5439 135.233 43.9189C134.981 44.2939 134.791 44.751 134.662 45.29C134.533 45.8291 134.469 46.4443 134.469 47.1357V48.041C134.469 48.7441 134.542 49.3682 134.688 49.9131C134.841 50.458 135.058 50.918 135.339 51.293C135.626 51.668 135.975 51.9521 136.385 52.1455C136.795 52.333 137.258 52.4268 137.773 52.4268C138.277 52.4268 138.69 52.3857 139.013 52.3037C139.335 52.2158 139.59 52.1133 139.777 51.9961C139.971 51.873 140.12 51.7559 140.226 51.6445V49.1045H137.562V47.4609H142.423Z" fill="#110D34"/>
<path d="M46.4795 95.136V93.192C49.9355 92.856 52.0715 90.84 52.0715 87.792C52.0715 85.44 50.3915 83.904 47.3915 83.28L44.7515 82.728C43.9355 82.56 43.2395 82.104 43.2395 81.408C43.2395 80.328 44.1275 79.848 45.3035 79.848C46.6955 79.848 47.6315 80.712 47.7275 82.032H51.8315C51.6155 79.08 49.5275 77.088 46.4795 76.632V74.592H43.8395V76.632C41.0075 77.112 39.0635 79.08 39.0635 81.72C39.0635 84.624 40.9595 85.824 43.4075 86.352L46.0955 86.928C46.8875 87.096 47.6555 87.624 47.6555 88.32C47.6555 89.352 46.6235 89.904 45.2075 89.904C43.5275 89.904 42.5195 89.04 42.5195 87.624H38.4155C38.6555 90.624 40.6715 92.64 43.8395 93.12V95.136H46.4795ZM67.215 90.12V86.52H64.887V76.776H61.527L53.151 87.024V90.12H60.783V93H64.887V90.12H67.215ZM57.615 86.52L60.783 82.536V86.52H57.615ZM74.337 76.584C70.401 76.584 67.737 79.152 67.737 82.296C67.737 85.32 70.065 87.552 73.521 87.552H73.785L69.225 93H73.881L78.777 87.24C80.409 85.32 80.889 84 80.889 82.008C80.889 79.128 78.225 76.584 74.337 76.584ZM74.289 80.04C75.441 80.04 76.569 80.664 76.569 82.152C76.569 83.712 75.441 84.312 74.289 84.312C73.137 84.312 72.033 83.712 72.033 82.152C72.033 80.664 73.137 80.04 74.289 80.04ZM95.0089 89.304H89.2489L90.9769 87.624C93.9769 84.72 94.7209 83.496 94.7209 81.456C94.7209 78.648 92.1769 76.536 88.7689 76.536C85.0249 76.536 82.4089 78.96 82.4089 82.392H86.4169C86.4169 81.024 87.1849 80.232 88.5529 80.232C89.7289 80.232 90.4009 80.88 90.4009 81.984C90.4009 83.328 89.5609 84.24 87.7609 85.992L82.9369 90.648V93H95.0089V89.304ZM102.079 91.464C102.079 89.04 100.975 87.888 99.2469 87.888C97.8309 87.888 96.7509 88.872 96.7509 90.336C96.7509 91.584 97.6869 92.616 98.9109 92.616C99.0549 92.616 99.1749 92.616 99.3909 92.568C99.1749 93.96 97.8309 94.752 95.8869 94.752V96.888C99.2469 96.888 102.079 94.872 102.079 91.464ZM109.961 93.192C113.897 93.192 116.561 90.624 116.561 87.48C116.561 84.456 114.233 82.224 110.777 82.224H110.513L115.073 76.776H110.417L105.521 82.536C103.889 84.456 103.409 85.776 103.409 87.768C103.409 90.648 106.073 93.192 109.961 93.192ZM110.009 89.736C108.857 89.736 107.729 89.112 107.729 87.624C107.729 86.064 108.857 85.464 110.009 85.464C111.161 85.464 112.265 86.064 112.265 87.624C112.265 89.112 111.161 89.736 110.009 89.736ZM123.989 93V76.776H116.837V80.352H119.837V93H123.989ZM133.2 93V76.776H126.048V80.352H129.048V93H133.2Z" fill="#110D34"/>
<path d="M35 133C35 130.239 37.2386 128 40 128V128C42.7614 128 45 130.239 45 133V171H35V133Z" fill="#212123" fill-opacity="0.2"/>
<path d="M35 148C35 145.239 37.2386 143 40 143V143C42.7614 143 45 145.239 45 148V171H35V148Z" fill="#6F00EB"/>
<path d="M58.1797 108C58.1797 105.239 60.4183 103 63.1797 103V103C65.9411 103 68.1797 105.239 68.1797 108V171H58.1797V108Z" fill="#212123" fill-opacity="0.2"/>
<path d="M58.1797 124C58.1797 121.239 60.4183 119 63.1797 119V119C65.9411 119 68.1797 121.239 68.1797 124V171H58.1797V124Z" fill="#6F00EB"/>
<path d="M81.3574 120C81.3574 117.239 83.596 115 86.3574 115V115C89.1188 115 91.3574 117.239 91.3574 120V171H81.3574V120Z" fill="#212123" fill-opacity="0.2"/>
<path d="M81.3574 137C81.3574 134.239 83.596 132 86.3574 132V132C89.1188 132 91.3574 134.239 91.3574 137V171H81.3574V137Z" fill="#6F00EB"/>
<path d="M104.537 140C104.537 137.239 106.776 135 109.537 135V135C112.299 135 114.537 137.239 114.537 140V171H104.537V140Z" fill="#212123" fill-opacity="0.2"/>
<path d="M104.537 150.929C104.537 148.167 106.776 145.929 109.537 145.929V145.929C112.299 145.929 114.537 148.167 114.537 150.929V171H104.537V150.929Z" fill="#6F00EB"/>
<path d="M127.715 112C127.715 109.239 129.953 107 132.715 107V107C135.476 107 137.715 109.239 137.715 112V171H127.715V112Z" fill="#212123" fill-opacity="0.2"/>
<path d="M127.715 130C127.715 127.239 129.953 125 132.715 125V125C135.476 125 137.715 127.239 137.715 130V171H127.715V130Z" fill="#6F00EB"/>
</svg>
