<svg width="35" height="36" viewBox="0 0 35 36" fill="none" xmlns="http://www.w3.org/2000/svg">
<g clip-path="url(#clip0_163_1218)">
<path d="M18.9286 16.0015V8.27831C20.5807 8.55699 22.1386 9.23493 23.4704 10.253C23.7359 10.4351 24.0475 10.5338 24.37 10.5382C25.4034 10.5382 26.246 9.70661 26.2569 8.67322C26.2591 8.23004 26.0858 7.80438 25.7742 7.48843C23.85 5.84064 21.4365 4.86868 18.9067 4.72387V2.13481C18.9067 1.39537 18.3077 0.796389 17.5682 0.796389C17.5529 0.794216 17.5375 0.794216 17.5221 0.794216C16.7718 0.783218 16.153 1.38227 16.142 2.13481V4.63609C11.2053 4.98714 7.84833 8.03697 7.84833 12.096C7.84833 17.0766 12.083 18.4589 16.142 19.5559V28.3324C14.0006 28.0449 11.982 27.1563 10.3276 25.7653C10.0161 25.5174 9.62987 25.3791 9.23055 25.3704C8.21907 25.4406 7.44019 26.2875 7.45329 27.3012C7.45112 27.7444 7.62444 28.17 7.93598 28.486C10.2025 30.5265 13.1163 31.7004 16.1639 31.7991V34.2126C16.1639 34.2279 16.1661 34.2433 16.1661 34.2587C16.2012 35.0091 16.8397 35.5883 17.59 35.551C18.3295 35.551 18.9285 34.952 18.9285 34.2126V31.7552C24.9184 31.3603 27.3319 27.7181 27.3319 23.8565C27.332 18.6783 22.9877 17.0986 18.9286 16.0015ZM16.164 15.2994C13.7724 14.5973 11.9075 13.8733 11.9075 11.8327C11.9075 9.79222 13.597 8.32217 16.164 8.12475V15.2994ZM18.9286 28.3762V20.3897C21.408 21.0918 23.3387 22.0353 23.3168 24.3391C23.3168 26.0066 22.1759 27.9813 18.9286 28.3762Z" fill="#FFE70C"/>
</g>
<defs>
<clipPath id="clip0_163_1218">
<rect width="34.7587" height="34.7586" fill="white" transform="translate(0.0136719 0.794189)"/>
</clipPath>
</defs>
</svg>
