<svg width="182" height="215" viewBox="0 0 182 215" fill="none" xmlns="http://www.w3.org/2000/svg">
<rect width="182" height="214.781" fill="#6F00EB"/>
<circle cx="90.9999" cy="39.2548" r="24.6235" stroke="white" stroke-width="0.713726"/>
<g clip-path="url(#clip0_553_143)">
<path d="M91.3556 25.6941C87.5162 25.6941 84.3926 28.8177 84.3926 32.6571C84.3926 36.4965 87.5162 39.6201 91.3556 39.6201C95.195 39.6201 98.3186 36.4965 98.3186 32.6571C98.3186 28.8177 95.195 25.6941 91.3556 25.6941Z" fill="white"/>
<path d="M100.018 44.1691C98.112 42.2334 95.5849 41.1675 92.9023 41.1675H89.8077C87.1252 41.1675 84.598 42.2334 82.6917 44.1691C80.7947 46.0952 79.75 48.6377 79.75 51.3283C79.75 51.7556 80.0964 52.102 80.5237 52.102H102.186C102.614 52.102 102.96 51.7556 102.96 51.3283C102.96 48.6377 101.915 46.0952 100.018 44.1691Z" fill="white"/>
</g>
<rect x="14.2754" y="84.2195" width="153.451" height="116.287" rx="20" fill="#FAF5FF"/>
<line x1="32.1191" y1="101.349" x2="82.0799" y2="101.349" stroke="#C4BEF9" stroke-width="1.42745"/>
<line x1="99.9238" y1="101.349" x2="149.885" y2="101.349" stroke="#C4BEF9" stroke-width="1.42745"/>
<line x1="32.1191" y1="115.623" x2="82.0799" y2="115.623" stroke="#C4BEF9" stroke-width="1.42745"/>
<line x1="99.9238" y1="115.623" x2="149.885" y2="115.623" stroke="#C4BEF9" stroke-width="1.42745"/>
<line x1="32.1232" y1="129.898" x2="95.6427" y2="130.263" stroke="#C4BEF9" stroke-width="1.42745"/>
<line x1="113.49" y1="129.898" x2="149.176" y2="130.255" stroke="#C4BEF9" stroke-width="1.42745"/>
<line x1="32.1191" y1="144.538" x2="149.17" y2="144.538" stroke="#C4BEF9" stroke-width="1.42745"/>
<rect x="49.4473" y="159.526" width="83.1059" height="23.1373" rx="11.5686" fill="#6F00EB"/>
<path d="M77.7292 173.494C77.7292 173.345 77.6957 173.208 77.6288 173.081C77.5656 172.951 77.4336 172.834 77.2329 172.73C77.0359 172.622 76.7385 172.529 76.3407 172.451C76.0062 172.381 75.7032 172.297 75.4319 172.2C75.1642 172.104 74.9356 171.987 74.746 171.849C74.5602 171.711 74.417 171.55 74.3167 171.364C74.2163 171.178 74.1661 170.961 74.1661 170.712C74.1661 170.474 74.2182 170.249 74.3222 170.037C74.43 169.825 74.5806 169.637 74.7739 169.474C74.9709 169.31 75.207 169.182 75.482 169.089C75.7571 168.996 76.0638 168.95 76.4021 168.95C76.8853 168.95 77.298 169.035 77.64 169.206C77.9819 169.377 78.244 169.606 78.4262 169.892C78.6083 170.174 78.6994 170.488 78.6994 170.834H77.6678C77.6678 170.667 77.6176 170.505 77.5173 170.349C77.4206 170.189 77.2775 170.057 77.0879 169.953C76.9021 169.849 76.6734 169.797 76.4021 169.797C76.1159 169.797 75.8835 169.842 75.7051 169.931C75.5304 170.016 75.4021 170.126 75.3203 170.26C75.2423 170.394 75.2032 170.535 75.2032 170.684C75.2032 170.795 75.2218 170.896 75.259 170.985C75.2999 171.07 75.3705 171.15 75.4709 171.225C75.5713 171.295 75.7125 171.362 75.8947 171.425C76.0768 171.488 76.3092 171.552 76.5917 171.615C77.0861 171.726 77.4931 171.86 77.8128 172.016C78.1325 172.172 78.3704 172.364 78.5265 172.591C78.6827 172.817 78.7607 173.092 78.7607 173.416C78.7607 173.68 78.705 173.921 78.5934 174.141C78.4856 174.36 78.3277 174.55 78.1195 174.709C77.915 174.866 77.6697 174.988 77.3835 175.078C77.1009 175.163 76.7831 175.206 76.43 175.206C75.8984 175.206 75.4486 175.111 75.0806 174.921C74.7126 174.732 74.4338 174.486 74.2442 174.185C74.0546 173.884 73.9598 173.566 73.9598 173.232H74.9969C75.0118 173.514 75.0936 173.739 75.2423 173.907C75.391 174.07 75.5731 174.187 75.7887 174.258C76.0043 174.325 76.2181 174.358 76.43 174.358C76.7125 174.358 76.9485 174.321 77.1381 174.247C77.3314 174.172 77.4782 174.07 77.5786 173.94C77.679 173.81 77.7292 173.661 77.7292 173.494ZM83.807 173.7V169.061H84.8441V175.094H83.8572L83.807 173.7ZM84.0021 172.429L84.4315 172.418C84.4315 172.819 84.3887 173.191 84.3032 173.533C84.2215 173.871 84.0876 174.165 83.9018 174.414C83.7159 174.663 83.4724 174.858 83.1713 174.999C82.8702 175.137 82.5041 175.206 82.0729 175.206C81.7792 175.206 81.5097 175.163 81.2643 175.078C81.0227 174.992 80.8145 174.86 80.6398 174.682C80.4651 174.503 80.3294 174.271 80.2328 173.985C80.1398 173.698 80.0934 173.355 80.0934 172.953V169.061H81.1249V172.964C81.1249 173.236 81.1547 173.46 81.2142 173.639C81.2773 173.814 81.361 173.953 81.4651 174.057C81.5729 174.157 81.6918 174.228 81.8219 174.269C81.9558 174.31 82.0933 174.33 82.2346 174.33C82.6732 174.33 83.0208 174.247 83.2773 174.079C83.5338 173.908 83.7178 173.68 83.8293 173.394C83.9445 173.104 84.0021 172.782 84.0021 172.429ZM86.411 166.53H87.4481V173.923L87.3589 175.094H86.411V166.53ZM91.5241 172.027V172.145C91.5241 172.583 91.4721 172.99 91.368 173.366C91.2639 173.737 91.1115 174.061 90.9108 174.336C90.71 174.611 90.4647 174.825 90.1748 174.977C89.8848 175.13 89.5521 175.206 89.1767 175.206C88.7938 175.206 88.4574 175.141 88.1674 175.011C87.8812 174.877 87.6395 174.685 87.4425 174.436C87.2455 174.187 87.0875 173.886 86.9686 173.533C86.8533 173.18 86.7734 172.782 86.7288 172.34V171.827C86.7734 171.381 86.8533 170.981 86.9686 170.628C87.0875 170.275 87.2455 169.974 87.4425 169.725C87.6395 169.472 87.8812 169.28 88.1674 169.15C88.4536 169.016 88.7863 168.95 89.1655 168.95C89.5447 168.95 89.8811 169.024 90.1748 169.173C90.4684 169.318 90.7138 169.526 90.9108 169.797C91.1115 170.068 91.2639 170.394 91.368 170.773C91.4721 171.148 91.5241 171.567 91.5241 172.027ZM90.487 172.145V172.027C90.487 171.726 90.4591 171.444 90.4034 171.18C90.3476 170.912 90.2584 170.678 90.1357 170.477C90.0131 170.273 89.8513 170.113 89.6506 169.998C89.4499 169.879 89.2027 169.819 88.909 169.819C88.6488 169.819 88.422 169.864 88.2287 169.953C88.0392 170.042 87.8775 170.163 87.7436 170.316C87.6098 170.464 87.5001 170.635 87.4146 170.829C87.3329 171.018 87.2715 171.215 87.2306 171.42V172.763C87.2901 173.024 87.3868 173.275 87.5206 173.516C87.6581 173.754 87.8403 173.949 88.067 174.102C88.2975 174.254 88.5819 174.33 88.9202 174.33C89.199 174.33 89.4369 174.275 89.6339 174.163C89.8346 174.048 89.9963 173.89 90.119 173.689C90.2454 173.488 90.3383 173.256 90.3978 172.992C90.4573 172.728 90.487 172.446 90.487 172.145ZM93.8549 170.26V175.094H92.8178V169.061H93.7991L93.8549 170.26ZM93.643 171.849L93.1635 171.832C93.1672 171.42 93.2211 171.039 93.3252 170.689C93.4293 170.336 93.5835 170.029 93.788 169.769C93.9924 169.509 94.2471 169.308 94.5519 169.167C94.8567 169.022 95.2099 168.95 95.6113 168.95C95.8939 168.95 96.1541 168.99 96.392 169.072C96.6299 169.15 96.8362 169.275 97.0109 169.446C97.1856 169.617 97.3213 169.836 97.418 170.104C97.5146 170.371 97.5629 170.695 97.5629 171.074V175.094H96.5314V171.124C96.5314 170.808 96.4775 170.555 96.3697 170.366C96.2656 170.176 96.1169 170.039 95.9236 169.953C95.7303 169.864 95.5035 169.819 95.2433 169.819C94.9385 169.819 94.6839 169.873 94.4794 169.981C94.275 170.089 94.1114 170.238 93.9887 170.427C93.8661 170.617 93.7768 170.834 93.7211 171.08C93.669 171.321 93.643 171.578 93.643 171.849ZM97.5518 171.28L96.8604 171.492C96.8641 171.161 96.918 170.843 97.0221 170.539C97.1299 170.234 97.2841 169.962 97.4849 169.725C97.6893 169.487 97.9402 169.299 98.2376 169.161C98.535 169.02 98.8751 168.95 99.258 168.95C99.5814 168.95 99.8677 168.992 100.117 169.078C100.37 169.163 100.581 169.295 100.752 169.474C100.927 169.648 101.059 169.873 101.148 170.148C101.238 170.423 101.282 170.751 101.282 171.13V175.094H100.245V171.119C100.245 170.78 100.191 170.518 100.083 170.332C99.9792 170.143 99.8305 170.011 99.6372 169.936C99.4476 169.858 99.2209 169.819 98.9569 169.819C98.7302 169.819 98.5294 169.858 98.3547 169.936C98.18 170.015 98.0332 170.122 97.9142 170.26C97.7953 170.394 97.7042 170.548 97.641 170.723C97.5815 170.897 97.5518 171.083 97.5518 171.28ZM103.964 169.061V175.094H102.927V169.061H103.964ZM102.849 167.461C102.849 167.293 102.899 167.152 103 167.037C103.104 166.922 103.256 166.864 103.457 166.864C103.654 166.864 103.804 166.922 103.908 167.037C104.016 167.152 104.07 167.293 104.07 167.461C104.07 167.621 104.016 167.758 103.908 167.873C103.804 167.985 103.654 168.041 103.457 168.041C103.256 168.041 103.104 167.985 103 167.873C102.899 167.758 102.849 167.621 102.849 167.461ZM108.146 169.061V169.853H104.884V169.061H108.146ZM105.988 167.595H107.02V173.6C107.02 173.804 107.051 173.959 107.115 174.063C107.178 174.167 107.26 174.236 107.36 174.269C107.46 174.302 107.568 174.319 107.683 174.319C107.769 174.319 107.858 174.312 107.951 174.297C108.048 174.278 108.12 174.263 108.168 174.252L108.174 175.094C108.092 175.12 107.984 175.144 107.851 175.167C107.721 175.193 107.563 175.206 107.377 175.206C107.124 175.206 106.892 175.156 106.68 175.055C106.468 174.955 106.299 174.788 106.172 174.553C106.05 174.315 105.988 173.996 105.988 173.594V167.595Z" fill="white"/>
<defs>
<clipPath id="clip0_553_143">
<rect width="26.4078" height="26.4078" fill="white" transform="translate(78.1523 25.6941)"/>
</clipPath>
</defs>
</svg>
