<svg width="26" height="35" viewBox="0 0 26 35" fill="none" xmlns="http://www.w3.org/2000/svg">
<path d="M22.1767 12.8646H21.1207V8.57638C21.1207 3.84639 17.3318 0 12.6724 0C8.01307 0 4.22414 3.84639 4.22414 8.57638V12.8646H3.1681C1.42214 12.8646 0 14.3067 0 16.0807L0 31.0894C0 32.8634 1.42214 34.3055 3.1681 34.3055H22.1767C23.9227 34.3055 25.3448 32.8634 25.3448 31.0894V16.0807C25.3448 14.3067 23.9227 12.8646 22.1767 12.8646ZM7.04032 8.57638C7.04032 5.42305 9.56619 2.85888 12.6724 2.85888C15.7786 2.85888 18.3045 5.42305 18.3045 8.57638V12.8646L7.04032 12.8646V8.57638Z" fill="#6F00EB"/>
</svg>
