<svg width="191" height="89" viewBox="0 0 191 89" fill="none" xmlns="http://www.w3.org/2000/svg">
<path d="M190.9 0H0V89H190.9V0Z" fill="white"/>
<path d="M17.2992 22.2002H32.6992C34.3992 22.2002 35.7992 23.6002 35.7992 25.3002V40.7002C35.7992 42.4002 34.3992 43.8002 32.6992 43.8002H17.2992C15.5992 43.8002 14.1992 42.4002 14.1992 40.7002V25.3002C14.1992 23.6002 15.5992 22.2002 17.2992 22.2002Z" fill="#279D33"/>
<path d="M25.1996 37.2C24.8996 37.2 24.5996 37 24.5996 36.6V28.6C24.5996 28.3 24.7996 28 25.1996 28C25.4996 28 25.7996 28.2 25.7996 28.6V36.6C25.7996 36.9 25.5996 37.2 25.1996 37.2Z" fill="white"/>
<path d="M25.2004 37.1999C25.0004 37.1999 24.9004 37.0999 24.8004 36.9999C24.6004 36.7999 24.6004 36.3999 24.8004 36.1999L28.2004 32.7999C28.4004 32.5999 28.8004 32.5999 29.0004 32.7999C29.2004 32.9999 29.2004 33.3999 29.0004 33.5999L25.6004 36.9999C25.5004 37.0999 25.4004 37.1999 25.2004 37.1999Z" fill="white"/>
<path d="M25.2 37.55C25 37.55 24.9 37.45 24.8 37.35L21.4 33.95C21.2 33.75 21.2 33.35 21.4 33.15C21.6 32.95 22 32.95 22.2 33.15L25.6 36.55C25.8 36.75 25.8 37.15 25.6 37.35C25.5 37.45 25.4 37.55 25.2 37.55Z" fill="white"/>
<path d="M51.4 33.9H48.5V32.2H51.4C51.9 32.2 52.3 32.1 52.6 32C52.9 31.8 53.1 31.6 53.3 31.3C53.4 31 53.5 30.7 53.5 30.3C53.5 30 53.4 29.6 53.3 29.3C53.2 29 52.9 28.8 52.6 28.6C52.3 28.4 51.9 28.3 51.4 28.3H49.2V38H47V26.6H51.4C52.3 26.6 53 26.8 53.7 27.1C54.3 27.4 54.8 27.8 55.1 28.4C55.4 29 55.6 29.6 55.6 30.3C55.6 31 55.4 31.7 55.1 32.2C54.8 32.7 54.3 33.1 53.7 33.4C53 33.7 52.3 33.9 51.4 33.9ZM61.7 36.2V32.3C61.7 32 61.7 31.8 61.6 31.6C61.5 31.4 61.4 31.2 61.1 31.1C60.9 31 60.6 30.9 60.3 30.9C60 30.9 59.8 30.9 59.6 31C59.4 31.1 59.2 31.2 59.1 31.4C59 31.6 59 31.8 59 32H56.9C56.9 31.7 57 31.3 57.1 31C57.3 30.7 57.5 30.4 57.8 30.2C58.1 30 58.5 29.8 58.9 29.6C59.3 29.5 59.8 29.4 60.4 29.4C61 29.4 61.6 29.5 62.1 29.7C62.6 29.9 63 30.2 63.3 30.7C63.6 31.1 63.7 31.7 63.7 32.3V36C63.7 36.4 63.7 36.8 63.8 37.1C63.9 37.4 63.9 37.7 64 37.9V38H62C61.9 37.8 61.8 37.5 61.8 37.2C61.7 36.9 61.7 36.5 61.7 36.2ZM62 32.9V34.1H60.7C60.4 34.1 60.1 34.1 59.8 34.2C59.6 34.3 59.4 34.4 59.2 34.5C59 34.6 58.9 34.8 58.8 34.9C58.7 35.1 58.7 35.3 58.7 35.5C58.7 35.7 58.7 35.9 58.8 36.1C58.9 36.3 59 36.4 59.2 36.5C59.4 36.6 59.6 36.6 59.9 36.6C60.3 36.6 60.6 36.5 60.9 36.4C61.2 36.2 61.4 36.1 61.5 35.9C61.7 35.7 61.7 35.5 61.7 35.3L62.3 36.2C62.2 36.4 62.1 36.6 62 36.9C61.9 37.1 61.7 37.4 61.4 37.6C61.2 37.8 60.9 38 60.6 38.1C60.3 38.2 59.9 38.3 59.5 38.3C59 38.3 58.5 38.2 58 38C57.6 37.8 57.2 37.5 57 37.1C56.8 36.7 56.6 36.3 56.6 35.8C56.6 35.4 56.7 35 56.8 34.6C57 34.3 57.2 34 57.5 33.7C57.8 33.5 58.2 33.3 58.7 33.2C59.2 33.1 59.7 33 60.4 33H62V32.9ZM68 37.1L70.3 29.6H72.5L69.1 39.3C69 39.5 68.9 39.7 68.8 40C68.7 40.2 68.5 40.5 68.3 40.7C68.1 40.9 67.8 41.1 67.5 41.2C67.2 41.3 66.8 41.4 66.4 41.4C66.2 41.4 66 41.4 65.9 41.4C65.8 41.4 65.6 41.3 65.4 41.3V39.8C65.5 39.8 65.5 39.8 65.6 39.8C65.7 39.8 65.7 39.8 65.8 39.8C66.1 39.8 66.4 39.8 66.6 39.7C66.8 39.6 67 39.5 67.1 39.4C67.2 39.2 67.3 39.1 67.4 38.8L68 37.1ZM66.9 29.5L68.8 35.7L69.1 37.9L67.7 38.2L64.6 29.5H66.9ZM75.5 31.3V38H73.4V29.5H75.3L75.5 31.3ZM75.2 33.5H74.6C74.6 32.9 74.7 32.4 74.8 31.9C74.9 31.4 75.2 31 75.4 30.6C75.7 30.2 76 29.9 76.4 29.7C76.8 29.5 77.3 29.4 77.8 29.4C78.2 29.4 78.5 29.5 78.8 29.6C79.1 29.7 79.4 29.9 79.6 30.1C79.8 30.3 80 30.6 80.1 31C80.2 31.4 80.3 31.8 80.3 32.4V38H78.2V32.6C78.2 32.2 78.1 31.9 78 31.7C77.9 31.5 77.7 31.3 77.5 31.2C77.6 31.1 77.3 31 77 31C76.7 31 76.4 31.1 76.2 31.2C76 31.3 75.8 31.5 75.6 31.7C75.5 31.9 75.3 32.2 75.3 32.5C75.2 32.8 75.2 33.1 75.2 33.5ZM80.4 33.1L79.5 33.3C79.5 32.8 79.6 32.3 79.7 31.8C79.8 31.3 80 30.9 80.3 30.6C80.6 30.2 80.9 30 81.3 29.8C81.7 29.6 82.2 29.5 82.7 29.5C83.1 29.5 83.5 29.6 83.8 29.7C84.1 29.8 84.4 30 84.7 30.3C84.9 30.5 85.1 30.9 85.2 31.3C85.3 31.7 85.4 32.2 85.4 32.8V38H83.3V32.6C83.3 32.2 83.2 31.9 83.1 31.7C83 31.5 82.8 31.3 82.6 31.2C82.4 31.1 82.1 31.1 81.9 31.1C81.6 31.1 81.4 31.2 81.1 31.3C80.9 31.4 80.7 31.5 80.6 31.7C80.5 31.9 80.4 32.1 80.3 32.4C80.4 32.5 80.4 32.8 80.4 33.1ZM91.2 38.2C90.6 38.2 90 38.1 89.5 37.9C89 37.7 88.6 37.4 88.2 37C87.8 36.6 87.6 36.2 87.4 35.7C87.2 35.2 87.1 34.7 87.1 34.1V33.8C87.1 33.1 87.2 32.6 87.4 32C87.6 31.5 87.9 31 88.2 30.6C88.5 30.2 89 29.9 89.4 29.7C89.9 29.5 90.4 29.4 91 29.4C91.6 29.4 92.1 29.5 92.6 29.7C93.1 29.9 93.4 30.2 93.7 30.5C94 30.9 94.2 31.3 94.4 31.8C94.6 32.3 94.6 32.9 94.6 33.5V34.4H88V33H92.6V32.8C92.6 32.5 92.5 32.2 92.4 31.9C92.3 31.6 92.1 31.4 91.9 31.2C91.7 31 91.3 31 91 31C90.7 31 90.4 31.1 90.2 31.2C90 31.3 89.8 31.5 89.6 31.8C89.5 32 89.3 32.3 89.3 32.7C89.2 33 89.2 33.4 89.2 33.8V34.1C89.2 34.5 89.2 34.8 89.3 35.1C89.4 35.4 89.5 35.7 89.7 35.9C89.9 36.1 90.1 36.3 90.4 36.4C90.7 36.5 91 36.6 91.3 36.6C91.7 36.6 92.1 36.5 92.5 36.4C92.9 36.2 93.2 36 93.4 35.6L94.4 36.7C94.2 37 94 37.2 93.7 37.5C93.4 37.7 93 37.9 92.6 38.1C92.2 38.1 91.7 38.2 91.2 38.2ZM98 31.4V38H95.9V29.5H97.8L98 31.4ZM97.7 33.5H97.1C97.1 32.9 97.2 32.3 97.3 31.8C97.5 31.3 97.7 30.9 98 30.5C98.3 30.1 98.6 29.9 99.1 29.7C99.5 29.5 100 29.4 100.5 29.4C100.9 29.4 101.3 29.5 101.6 29.6C101.9 29.7 102.2 29.9 102.4 30.1C102.6 30.3 102.8 30.7 102.9 31.1C103 31.5 103.1 32 103.1 32.6V38H101V32.6C101 32.2 100.9 31.9 100.8 31.7C100.7 31.5 100.5 31.3 100.3 31.2C100.1 31.1 99.8 31.1 99.5 31.1C99.2 31.1 98.9 31.2 98.7 31.3C98.5 31.4 98.3 31.6 98.1 31.8C97.9 32 97.8 32.3 97.7 32.6C97.7 32.8 97.7 33.1 97.7 33.5ZM108.9 29.5V31H104.1V29.5H108.9ZM105.4 27.5H107.5V35.6C107.5 35.8 107.5 36 107.6 36.2C107.7 36.3 107.8 36.4 107.9 36.5C108 36.5 108.2 36.6 108.4 36.6C108.5 36.6 108.7 36.6 108.8 36.6C108.9 36.6 109 36.6 109.1 36.6V38.1C108.9 38.2 108.7 38.2 108.5 38.2C108.3 38.2 108 38.3 107.8 38.3C107.3 38.3 106.9 38.2 106.6 38.1C106.3 37.9 106 37.7 105.8 37.3C105.6 36.9 105.5 36.5 105.5 35.9V27.5H105.4ZM116.3 31.3V38H114.2V29.5H116.2L116.3 31.3ZM118.9 29.5V31.4C118.8 31.4 118.7 31.4 118.5 31.4C118.4 31.4 118.2 31.4 118.1 31.4C117.8 31.4 117.5 31.4 117.3 31.5C117.1 31.6 116.9 31.7 116.7 31.9C116.5 32.1 116.4 32.3 116.3 32.5C116.2 32.7 116.2 33 116.2 33.3L115.8 33.2C115.8 32.7 115.9 32.2 116 31.7C116.1 31.2 116.3 30.8 116.5 30.5C116.7 30.2 117 29.9 117.3 29.7C117.6 29.5 118 29.4 118.4 29.4C118.5 29.4 118.6 29.4 118.8 29.4C118.7 29.4 118.8 29.5 118.9 29.5ZM123.7 38.2C123.1 38.2 122.5 38.1 122 37.9C121.5 37.7 121.1 37.4 120.7 37C120.3 36.6 120.1 36.2 119.9 35.7C119.7 35.2 119.6 34.7 119.6 34.1V33.8C119.6 33.1 119.7 32.6 119.9 32C120.1 31.5 120.4 31 120.7 30.6C121 30.2 121.5 29.9 121.9 29.7C122.4 29.5 122.9 29.4 123.5 29.4C124.1 29.4 124.6 29.5 125.1 29.7C125.6 29.9 125.9 30.2 126.2 30.5C126.5 30.9 126.7 31.3 126.9 31.8C127.1 32.3 127.1 32.9 127.1 33.5V34.4H120.5V33H125.1V32.8C125.1 32.5 125 32.2 124.9 31.9C124.8 31.6 124.6 31.4 124.4 31.2C124.2 31 123.9 31 123.5 31C123.2 31 122.9 31.1 122.7 31.2C122.5 31.3 122.3 31.5 122.1 31.8C122 32 121.8 32.3 121.8 32.7C121.7 33 121.7 33.4 121.7 33.8V34.1C121.7 34.5 121.7 34.8 121.8 35.1C121.9 35.4 122 35.7 122.2 35.9C122.4 36.1 122.6 36.3 122.9 36.4C123.2 36.5 123.5 36.6 123.8 36.6C124.2 36.6 124.6 36.5 125 36.4C125.4 36.2 125.7 36 125.9 35.6L126.9 36.7C126.7 37 126.5 37.2 126.2 37.5C125.9 37.7 125.5 37.9 125.1 38.1C124.7 38.1 124.2 38.2 123.7 38.2ZM132 36.5C132.3 36.5 132.6 36.4 132.8 36.3C133 36.2 133.2 36 133.3 35.8C133.4 35.6 133.5 35.3 133.5 35.1H135.4C135.4 35.7 135.2 36.2 134.9 36.6C134.6 37.1 134.2 37.4 133.7 37.7C133.2 38 132.6 38.1 132 38.1C131.3 38.1 130.8 38 130.3 37.8C129.8 37.6 129.4 37.3 129.1 36.9C128.8 36.5 128.5 36.1 128.4 35.5C128.2 35 128.2 34.4 128.2 33.8V33.6C128.2 33 128.3 32.5 128.4 31.9C128.6 31.4 128.8 30.9 129.1 30.5C129.4 30.1 129.8 29.8 130.3 29.6C130.8 29.4 131.4 29.3 132 29.3C132.7 29.3 133.3 29.4 133.8 29.7C134.3 30 134.7 30.3 135 30.8C135.3 31.3 135.5 31.9 135.5 32.5H133.6C133.6 32.2 133.5 31.9 133.4 31.7C133.3 31.5 133.1 31.3 132.9 31.1C132.7 31 132.4 30.9 132.1 30.9C131.8 30.9 131.5 31 131.2 31.1C131 31.2 130.8 31.4 130.7 31.7C130.6 31.9 130.5 32.2 130.4 32.5C130.4 32.8 130.3 33.1 130.3 33.5V33.7C130.3 34 130.3 34.4 130.4 34.7C130.5 35 130.5 35.3 130.7 35.5C130.8 35.7 131 35.9 131.2 36.1C131.3 36.5 131.6 36.5 132 36.5ZM140.6 38.2C140 38.2 139.4 38.1 138.9 37.9C138.4 37.7 138 37.4 137.6 37C137.2 36.6 137 36.2 136.8 35.7C136.6 35.2 136.5 34.7 136.5 34.1V33.8C136.5 33.1 136.6 32.6 136.8 32C137 31.5 137.3 31 137.6 30.6C137.9 30.2 138.4 29.9 138.8 29.7C139.3 29.5 139.8 29.4 140.4 29.4C141 29.4 141.5 29.5 142 29.7C142.5 29.9 142.8 30.2 143.1 30.5C143.4 30.9 143.6 31.3 143.8 31.8C144 32.3 144 32.9 144 33.5V34.4H137.4V33H142V32.8C142 32.5 141.9 32.2 141.8 31.9C141.7 31.6 141.5 31.4 141.3 31.2C141.1 31 140.8 31 140.4 31C140.1 31 139.8 31.1 139.6 31.2C139.4 31.3 139.2 31.5 139 31.8C138.9 32 138.7 32.3 138.7 32.7C138.6 33 138.6 33.4 138.6 33.8V34.1C138.6 34.5 138.6 34.8 138.7 35.1C138.8 35.4 138.9 35.7 139.1 35.9C139.3 36.1 139.5 36.3 139.8 36.4C140.1 36.5 140.4 36.6 140.7 36.6C141.1 36.6 141.5 36.5 141.9 36.4C142.3 36.2 142.6 36 142.8 35.6L143.8 36.7C143.6 37 143.4 37.2 143.1 37.5C142.8 37.7 142.4 37.9 142 38.1C141.7 38.1 141.2 38.2 140.6 38.2ZM147.6 29.5V38H145.5V29.5H147.6ZM145.4 27.3C145.4 27 145.5 26.7 145.7 26.5C145.9 26.3 146.2 26.2 146.6 26.2C147 26.2 147.2 26.3 147.5 26.5C147.7 26.7 147.8 27 147.8 27.3C147.8 27.6 147.7 27.9 147.5 28.1C147.3 28.3 147 28.4 146.6 28.4C146.2 28.4 146 28.3 145.7 28.1C145.5 27.9 145.4 27.6 145.4 27.3ZM152.4 36.4L154.4 29.5H156.6L153.7 38H152.4V36.4ZM151 29.5L153 36.4V38H151.7L148.8 29.5H151ZM161.3 38.2C160.7 38.2 160.1 38.1 159.6 37.9C159.1 37.7 158.7 37.4 158.3 37C157.9 36.6 157.7 36.2 157.5 35.7C157.3 35.2 157.2 34.7 157.2 34.1V33.8C157.2 33.1 157.3 32.6 157.5 32C157.7 31.5 158 31 158.3 30.6C158.6 30.2 159.1 29.9 159.5 29.7C160 29.5 160.5 29.4 161.1 29.4C161.7 29.4 162.2 29.5 162.7 29.7C163.2 29.9 163.5 30.2 163.8 30.5C164.1 30.9 164.3 31.3 164.5 31.8C164.7 32.3 164.7 32.9 164.7 33.5V34.4H158.1V33H162.7V32.8C162.7 32.5 162.6 32.2 162.5 31.9C162.4 31.6 162.2 31.4 162 31.2C161.8 31 161.5 31 161.1 31C160.8 31 160.5 31.1 160.3 31.2C160.1 31.3 159.9 31.5 159.7 31.8C159.6 32 159.4 32.3 159.4 32.7C159.3 33 159.3 33.4 159.3 33.8V34.1C159.3 34.5 159.3 34.8 159.4 35.1C159.5 35.4 159.6 35.7 159.8 35.9C160 36.1 160.2 36.3 160.5 36.4C160.8 36.5 161.1 36.6 161.4 36.6C161.8 36.6 162.2 36.5 162.6 36.4C163 36.2 163.3 36 163.5 35.6L164.5 36.7C164.3 37 164.1 37.2 163.8 37.5C163.5 37.7 163.1 37.9 162.7 38.1C162.3 38.1 161.9 38.2 161.3 38.2ZM171.2 36.2V26H173.3V38H171.4L171.2 36.2ZM165.8 33.9V33.7C165.8 33.1 165.9 32.5 166 31.9C166.2 31.4 166.4 30.9 166.7 30.5C167 30.1 167.3 29.8 167.7 29.6C168.1 29.4 168.6 29.3 169.1 29.3C169.6 29.3 170 29.4 170.4 29.6C170.8 29.8 171.1 30.1 171.4 30.5C171.7 30.9 171.9 31.3 172 31.8C172.2 32.3 172.3 32.9 172.4 33.5V34C172.3 34.6 172.2 35.1 172 35.6C171.8 36.1 171.6 36.5 171.4 36.9C171.1 37.3 170.8 37.6 170.4 37.8C170 38 169.6 38.1 169.1 38.1C168.6 38.1 168.1 38 167.7 37.8C167.3 37.6 166.9 37.3 166.7 36.9C166.4 36.5 166.2 36.1 166.1 35.5C165.8 35.1 165.8 34.5 165.8 33.9ZM167.8 33.7V33.9C167.8 34.3 167.8 34.6 167.9 34.9C168 35.2 168.1 35.5 168.2 35.7C168.3 35.9 168.5 36.1 168.7 36.3C168.9 36.4 169.2 36.5 169.5 36.5C169.9 36.5 170.2 36.4 170.5 36.2C170.8 36 171 35.8 171.1 35.5C171.2 35.2 171.3 34.8 171.4 34.4V33.2C171.4 32.9 171.3 32.6 171.2 32.3C171.1 32 171 31.8 170.8 31.6C170.6 31.4 170.5 31.3 170.2 31.1C170 31 169.7 30.9 169.4 30.9C169.1 30.9 168.8 31 168.6 31.1C168.4 31.2 168.2 31.4 168.1 31.7C168 31.9 167.9 32.2 167.8 32.6C167.9 33 167.8 33.3 167.8 33.7ZM177.5 26.6L177.3 34.6H175.6L175.4 26.6H177.5ZM175.2 37C175.2 36.7 175.3 36.4 175.5 36.2C175.7 36 176 35.9 176.4 35.9C176.8 35.9 177 36 177.3 36.2C177.5 36.4 177.6 36.7 177.6 37C177.6 37.3 177.5 37.6 177.3 37.8C177.1 38 176.8 38.1 176.4 38.1C176 38.1 175.8 38 175.5 37.8C175.3 37.6 175.2 37.3 175.2 37Z" fill="#110D34"/>
<path d="M72.6004 51.7998V54.1998H71.4004V51.7998H72.6004ZM72.5004 64.4998V66.5998H71.3004V64.4998H72.5004ZM74.0004 62.0998C74.0004 61.7998 73.9004 61.4998 73.8004 61.2998C73.7004 61.0998 73.4004 60.7998 73.1004 60.5998C72.8004 60.3998 72.3004 60.1998 71.8004 59.9998C71.1004 59.7998 70.6004 59.4998 70.1004 59.2998C69.6004 58.9998 69.3004 58.5998 69.0004 58.1998C68.7004 57.7998 68.6004 57.1998 68.6004 56.5998C68.6004 55.9998 68.7004 55.3998 69.0004 54.8998C69.3004 54.3998 69.7004 54.0998 70.2004 53.7998C70.7004 53.5998 71.3004 53.3998 72.0004 53.3998C72.5004 53.3998 73.0004 53.4998 73.4004 53.5998C73.8004 53.7998 74.2004 53.9998 74.5004 54.2998C74.8004 54.5998 75.0004 54.9998 75.2004 55.3998C75.4004 55.8998 75.4004 56.3998 75.4004 56.9998H74.0004C74.0004 56.6998 74.0004 56.2998 73.9004 55.9998C73.8004 55.6998 73.7004 55.4998 73.5004 55.1998C73.3004 54.9998 73.1004 54.7998 72.9004 54.6998C72.7004 54.5998 72.4004 54.4998 72.1004 54.4998C71.7004 54.4998 71.3004 54.5998 71.0004 54.6998C70.7004 54.8998 70.5004 55.0998 70.4004 55.2998C70.3004 55.5998 70.2004 55.8998 70.2004 56.1998C70.2004 56.4998 70.3004 56.7998 70.4004 57.0998C70.5004 57.2998 70.8004 57.5998 71.1004 57.7998C71.4004 57.9998 71.9004 58.1998 72.5004 58.3998C73.2004 58.5998 73.7004 58.8998 74.2004 59.1998C74.7004 59.4998 75.0004 59.7998 75.3004 60.2998C75.5004 60.6998 75.7004 61.1998 75.7004 61.8998C75.7004 62.5998 75.5004 63.0998 75.2004 63.5998C74.9004 64.0998 74.5004 64.3998 73.9004 64.5998C73.4004 64.7998 72.7004 64.9998 72.0004 64.9998C71.6004 64.9998 71.1004 64.8998 70.7004 64.7998C70.3004 64.6998 69.9004 64.4998 69.5004 64.1998C69.2004 63.8998 68.9004 63.5998 68.7004 63.0998C68.5004 62.5998 68.4004 62.0998 68.4004 61.3998H69.9004C69.9004 61.7998 70.0004 62.1998 70.1004 62.4998C70.2004 62.7998 70.4004 62.9998 70.6004 63.1998C70.8004 63.3998 71.0004 63.4998 71.3004 63.5998C71.6004 63.6998 71.8004 63.6998 72.1004 63.6998C72.6004 63.6998 73.0004 63.5998 73.3004 63.4998C73.6004 63.2998 73.9004 63.0998 74.1004 62.8998C74.0004 62.7998 74.0004 62.3998 74.0004 62.0998ZM84.8004 63.7998V64.9998H77.4004V63.9998L81.1004 59.8998C81.6004 59.3998 81.9004 58.9998 82.2004 58.5998C82.5004 58.1998 82.6004 57.8998 82.7004 57.5998C82.8004 57.2998 82.9004 56.9998 82.9004 56.6998C82.9004 56.2998 82.8004 55.9998 82.7004 55.6998C82.5004 55.3998 82.3004 55.0998 82.0004 54.9998C81.7004 54.8998 81.3004 54.6998 80.9004 54.6998C80.4004 54.6998 80.0004 54.7998 79.6004 54.9998C79.3004 55.1998 79.0004 55.4998 78.8004 55.7998C78.6004 56.0998 78.6004 56.5998 78.6004 56.9998H77.2004C77.2004 56.3998 77.3004 55.7998 77.6004 55.1998C77.9004 54.6998 78.3004 54.1998 78.8004 53.8998C79.4004 53.5998 80.0004 53.3998 80.8004 53.3998C81.5004 53.3998 82.1004 53.4998 82.6004 53.7998C83.1004 53.9998 83.5004 54.3998 83.8004 54.8998C84.1004 55.3998 84.2004 55.8998 84.2004 56.4998C84.2004 56.7998 84.1004 57.1998 84.0004 57.4998C83.9004 57.7998 83.7004 58.1998 83.5004 58.4998C83.3004 58.7998 83.1004 59.1998 82.8004 59.4998C82.5004 59.7998 82.3004 60.1998 82.0004 60.4998L79.0004 63.7998H84.8004ZM94.0004 61.1998V62.3998H85.8004V61.4998L90.9004 53.5998H92.1004L90.8004 55.8998L87.4004 61.1998H94.0004ZM92.4004 53.5998V64.9998H91.0004V53.5998H92.4004ZM102.4 58.3998V60.0998C102.4 60.9998 102.3 61.7998 102.2 62.4998C102 63.0998 101.8 63.6998 101.5 63.9998C101.2 64.3998 100.8 64.6998 100.4 64.8998C100 65.0998 99.5004 65.1998 98.9004 65.1998C98.5004 65.1998 98.1004 65.0998 97.7004 64.9998C97.3004 64.8998 97.0004 64.6998 96.7004 64.4998C96.4004 64.2998 96.2004 63.8998 95.9004 63.4998C95.7004 63.0998 95.5004 62.5998 95.4004 62.0998C95.3004 61.4998 95.2004 60.8998 95.2004 60.0998V58.3998C95.2004 57.4998 95.3004 56.6998 95.4004 56.0998C95.6004 55.4998 95.8004 54.9998 96.1004 54.5998C96.4004 54.1998 96.8004 53.8998 97.2004 53.7998C97.6004 53.5998 98.1004 53.5998 98.7004 53.5998C99.1004 53.5998 99.5004 53.6998 99.9004 53.7998C100.3 53.8998 100.6 54.0998 100.9 54.2998C101.2 54.4998 101.4 54.7998 101.6 55.1998C101.8 55.5998 102 55.9998 102.1 56.5998C102.4 56.9998 102.4 57.6998 102.4 58.3998ZM101 60.3998V58.1998C101 57.6998 101 57.1998 100.9 56.8998C100.8 56.4998 100.8 56.1998 100.6 55.8998C100.5 55.5998 100.3 55.3998 100.2 55.1998C100 54.9998 99.8004 54.8998 99.6004 54.7998C99.4004 54.6998 99.1004 54.6998 98.8004 54.6998C98.5004 54.6998 98.2004 54.7998 97.9004 54.8998C97.6004 54.9998 97.4004 55.1998 97.2004 55.4998C97.0004 55.7998 96.9004 56.0998 96.8004 56.5998C96.7004 56.9998 96.7004 57.5998 96.7004 58.1998V60.3998C96.7004 60.8998 96.7004 61.3998 96.8004 61.7998C96.9004 62.1998 97.0004 62.4998 97.1004 62.7998C97.2004 63.0998 97.4004 63.2998 97.5004 63.4998C97.6004 63.6998 97.9004 63.7998 98.1004 63.8998C98.3004 63.9998 98.6004 63.9998 98.9004 63.9998C99.3004 63.9998 99.6004 63.8998 99.8004 63.7998C100.1 63.6998 100.3 63.4998 100.5 63.1998C100.7 62.8998 100.8 62.4998 100.9 62.0998C100.9 61.5998 101 60.9998 101 60.3998ZM104.5 64.1998C104.5 63.9998 104.6 63.6998 104.7 63.5998C104.9 63.3998 105.1 63.2998 105.4 63.2998C105.7 63.2998 105.9 63.3998 106.1 63.5998C106.3 63.7998 106.3 63.9998 106.3 64.1998C106.3 64.3998 106.2 64.5998 106.1 64.7998C105.9 64.9998 105.7 64.9998 105.4 64.9998C105.1 64.9998 104.9 64.8998 104.7 64.7998C104.6 64.6998 104.5 64.4998 104.5 64.1998ZM115.7 58.3998V60.0998C115.7 60.9998 115.6 61.7998 115.5 62.4998C115.3 63.0998 115.1 63.6998 114.8 63.9998C114.5 64.3998 114.1 64.6998 113.7 64.8998C113.3 65.0998 112.8 65.1998 112.2 65.1998C111.8 65.1998 111.4 65.0998 111 64.9998C110.6 64.8998 110.3 64.6998 110 64.4998C109.7 64.2998 109.5 63.8998 109.2 63.4998C109 63.0998 108.8 62.5998 108.7 62.0998C108.6 61.4998 108.5 60.8998 108.5 60.0998V58.3998C108.5 57.4998 108.6 56.6998 108.7 56.0998C108.9 55.4998 109.1 54.9998 109.4 54.5998C109.7 54.1998 110.1 53.8998 110.5 53.7998C110.9 53.5998 111.4 53.5998 112 53.5998C112.4 53.5998 112.8 53.6998 113.2 53.7998C113.6 53.8998 113.9 54.0998 114.2 54.2998C114.5 54.4998 114.7 54.7998 114.9 55.1998C115.1 55.5998 115.3 55.9998 115.4 56.5998C115.6 56.9998 115.7 57.6998 115.7 58.3998ZM114.2 60.3998V58.1998C114.2 57.6998 114.2 57.1998 114.1 56.8998C114 56.4998 114 56.1998 113.8 55.8998C113.7 55.5998 113.5 55.3998 113.4 55.1998C113.2 54.9998 113 54.8998 112.8 54.7998C112.6 54.6998 112.3 54.6998 112 54.6998C111.7 54.6998 111.4 54.7998 111.1 54.8998C110.8 54.9998 110.6 55.1998 110.4 55.4998C110.2 55.7998 110.1 56.0998 110 56.5998C109.9 56.9998 109.9 57.5998 109.9 58.1998V60.3998C109.9 60.8998 109.9 61.3998 110 61.7998C110.1 62.1998 110.2 62.4998 110.3 62.7998C110.4 63.0998 110.6 63.2998 110.7 63.4998C110.9 63.6998 111.1 63.7998 111.3 63.8998C111.5 63.9998 111.8 63.9998 112.1 63.9998C112.5 63.9998 112.8 63.8998 113 63.7998C113.2 63.6998 113.5 63.4998 113.7 63.1998C113.9 62.8998 114 62.4998 114.1 62.0998C114.2 61.5998 114.2 60.9998 114.2 60.3998ZM124.7 58.3998V60.0998C124.7 60.9998 124.6 61.7998 124.5 62.4998C124.3 63.0998 124.1 63.6998 123.8 63.9998C123.5 64.3998 123.1 64.6998 122.7 64.8998C122.3 65.0998 121.8 65.1998 121.2 65.1998C120.8 65.1998 120.4 65.0998 120 64.9998C119.6 64.8998 119.3 64.6998 119 64.4998C118.7 64.2998 118.5 63.8998 118.2 63.4998C118 63.0998 117.8 62.5998 117.7 62.0998C117.6 61.4998 117.5 60.8998 117.5 60.0998V58.3998C117.5 57.4998 117.6 56.6998 117.7 56.0998C117.9 55.4998 118.1 54.9998 118.4 54.5998C118.7 54.1998 119.1 53.8998 119.5 53.7998C119.9 53.5998 120.4 53.5998 121 53.5998C121.4 53.5998 121.8 53.6998 122.2 53.7998C122.6 53.8998 122.9 54.0998 123.2 54.2998C123.5 54.4998 123.7 54.7998 123.9 55.1998C124.1 55.5998 124.3 55.9998 124.4 56.5998C124.6 56.9998 124.7 57.6998 124.7 58.3998ZM123.2 60.3998V58.1998C123.2 57.6998 123.2 57.1998 123.1 56.8998C123 56.4998 123 56.1998 122.8 55.8998C122.7 55.5998 122.5 55.3998 122.4 55.1998C122.2 54.9998 122 54.8998 121.8 54.7998C121.6 54.6998 121.3 54.6998 121 54.6998C120.7 54.6998 120.4 54.7998 120.1 54.8998C119.8 54.9998 119.6 55.1998 119.4 55.4998C119.2 55.7998 119.1 56.0998 119 56.5998C118.9 56.9998 118.9 57.5998 118.9 58.1998V60.3998C118.9 60.8998 118.9 61.3998 119 61.7998C119.1 62.1998 119.2 62.4998 119.3 62.7998C119.4 63.0998 119.6 63.2998 119.7 63.4998C119.9 63.6998 120.1 63.7998 120.3 63.8998C120.5 63.9998 120.8 63.9998 121.1 63.9998C121.5 63.9998 121.8 63.8998 122 63.7998C122.2 63.6998 122.5 63.4998 122.7 63.1998C122.9 62.8998 123 62.4998 123.1 62.0998C123.2 61.5998 123.2 60.9998 123.2 60.3998Z" fill="#6F00EB"/>
</svg>
