<svg width="25" height="25" viewBox="0 0 25 25" fill="none" xmlns="http://www.w3.org/2000/svg">
<g clip-path="url(#clip0_163_1308)">
<path d="M18.2459 0.796464C17.5634 0.449263 16.7286 0.721311 16.3814 1.40407L6.06887 21.6872C5.72176 22.3699 5.99381 23.2045 6.67647 23.5516C6.87781 23.6539 7.09236 23.7025 7.30377 23.7025C7.80905 23.7025 8.29611 23.4253 8.54089 22.944L18.8535 2.66087C19.2006 1.9782 18.9285 1.14357 18.2459 0.796464Z" fill="#2421D6"/>
<path d="M10.8399 7.47614C10.8399 4.57642 8.48072 2.21729 5.58098 2.21729C2.68142 2.21729 0.322266 4.57642 0.322266 7.47614C0.322266 10.3758 2.68142 12.7349 5.58107 12.7349C8.48081 12.7349 10.8399 10.3758 10.8399 7.47614ZM5.58107 9.96173C4.21056 9.96173 3.09546 8.84664 3.09546 7.47614C3.09546 6.10554 4.21056 4.99045 5.58107 4.99045C6.95168 4.99045 8.06678 6.10545 8.06678 7.47614C8.06668 8.84664 6.95168 9.96173 5.58107 9.96173Z" fill="#2421D6"/>
<path d="M19.4015 11.614C16.5017 11.614 14.1426 13.9731 14.1426 16.8728C14.1426 19.7724 16.5016 22.1315 19.4015 22.1315C22.3011 22.1315 24.6603 19.7725 24.6603 16.8728C24.6603 13.9731 22.3012 11.614 19.4015 11.614ZM19.4015 19.3583C18.0309 19.3583 16.9158 18.2432 16.9158 16.8727C16.9158 15.5022 18.0309 14.3871 19.4015 14.3871C20.772 14.3871 21.8871 15.5022 21.8871 16.8727C21.8871 18.2432 20.7721 19.3583 19.4015 19.3583Z" fill="#2421D6"/>
</g>
<defs>
<clipPath id="clip0_163_1308">
<rect width="24.3379" height="24.3378" fill="white" transform="translate(0.322266 0.00561523)"/>
</clipPath>
</defs>
</svg>
