<svg width="190" height="45" viewBox="0 0 190 45" fill="none" xmlns="http://www.w3.org/2000/svg">
<path d="M6.4505 16.0492C2.88937 16.0492 0 13.161 0 9.59834C0 6.03572 2.88937 3.14783 6.4505 3.14783C10.0128 3.14783 12.901 6.03609 12.901 9.59834C12.901 13.1605 15.7897 16.0492 19.352 16.0492C22.9142 16.0492 25.8024 13.161 25.8024 9.59864C25.8024 6.03647 28.6911 3.14783 32.2533 3.14783C35.8156 3.14783 38.7039 6.03609 38.7039 9.59834C38.7039 13.1605 35.8156 16.0488 32.2533 16.0488C21.5644 16.0488 12.9014 24.7156 12.9014 35.4004C12.9014 38.9609 10.0131 41.851 6.45093 41.851C2.88864 41.851 0 38.9634 0 35.4013C0 31.8389 2.88826 28.9503 6.4505 28.9503C10.0128 28.9503 12.9003 26.062 12.9003 22.4998C12.9003 18.9375 10.0131 16.0492 6.4505 16.0492Z" fill="white"/>
<path d="M17.7383 31.3689C17.7383 25.5764 22.4304 20.8866 28.221 20.8866C34.0115 20.8869 38.7028 25.5764 38.7028 31.3689C38.7028 37.1587 34.0115 41.8515 28.2203 41.8515C22.4296 41.8515 17.7383 37.1587 17.7383 31.3689Z" fill="white"/>
<path d="M71.9806 27.4508C71.9806 23.5776 69.496 21.4585 64.8922 20.545L60.3979 19.6315C58.4979 19.2661 56.8537 18.4989 56.8537 16.7085C56.8537 14.8816 58.3883 13.3469 61.0922 13.3469C63.8691 13.3469 65.7691 15.2104 65.9518 17.9508H71.5787C71.2133 12.47 66.9018 9.03534 61.0191 9.03534C55.3556 9.03534 51.2268 12.3969 51.2268 17.0738C51.2268 21.4219 54.296 23.5776 58.2787 24.345L62.5902 25.1853C64.8191 25.6239 66.0979 26.6103 66.0979 28.2546C66.0979 30.3738 64.0883 31.6162 61.2749 31.6162C57.8768 31.6162 56.0133 29.7527 55.8672 26.8662H50.2402C50.6422 32.4201 54.771 35.9642 61.3845 35.9642C67.9614 35.9642 71.9806 32.4566 71.9806 27.4508Z" fill="white"/>
<path d="M87.2575 35.5988H91.3864V23.3219C91.3864 18.5354 88.3902 15.7219 83.2748 15.7219C78.5614 15.7219 75.3095 18.6449 75.0172 23.1392H79.5845C79.7672 20.9469 81.0825 19.6681 83.2748 19.6681C85.3941 19.6681 86.6364 20.9469 86.6364 23.1392V24.3085C85.4306 24.1622 84.4806 24.0892 83.3845 24.0892C77.6845 24.0892 74.6152 26.1354 74.6152 29.9354C74.6152 33.5892 77.3191 35.9642 81.3748 35.9642C84.0422 35.9642 85.9787 35.0142 87.2575 33.1873V35.5988ZM79.4018 29.7892C79.4018 28.0353 80.8268 27.1219 83.7133 27.1219C84.5902 27.1219 85.4306 27.195 86.6364 27.3777V28.7661C86.6364 31.0315 85.0652 32.4565 82.471 32.4565C80.571 32.4565 79.4018 31.4335 79.4018 29.7892Z" fill="white"/>
<path d="M112.243 29.3507C112.243 26.5372 110.306 24.7835 106.506 24.0527L102.743 23.3584C100.989 23.0296 100.185 22.5546 100.185 21.3854C100.185 20.1431 101.427 19.4488 103.291 19.4488C105.446 19.4488 106.871 20.6181 107.054 22.5181H111.914C111.548 18.3162 108.187 15.7219 103.291 15.7219C98.4311 15.7219 95.3253 18.243 95.3253 21.8603C95.3253 24.8931 97.4446 26.8296 100.952 27.4508L104.46 28.1085C106.323 28.4738 107.127 28.9854 107.127 30.2277C107.127 31.6162 105.629 32.2373 103.656 32.2373C101.135 32.2373 99.4176 30.9584 99.3811 28.9488H94.5215C94.9234 33.2969 98.0292 35.9642 103.583 35.9642C109.137 35.9642 112.243 33.443 112.243 29.3507Z" fill="white"/>
<path d="M123.93 35.9642C129.155 35.9642 132.809 32.6392 133.393 27.2681H128.059C127.766 29.9354 126.268 31.47 123.93 31.47C121.262 31.47 119.618 29.3508 119.618 25.8431C119.618 22.3719 121.299 20.2161 123.93 20.2161C126.232 20.2161 127.803 21.8238 128.059 24.4181H133.393C132.772 19.1565 129.009 15.7219 123.93 15.7219C118.449 15.7219 114.43 19.9969 114.43 25.8431C114.43 31.7988 118.303 35.9642 123.93 35.9642Z" fill="white"/>
<path d="M148.273 35.5988H152.402V23.3219C152.402 18.5354 149.406 15.7219 144.29 15.7219C139.577 15.7219 136.325 18.6449 136.033 23.1392H140.6C140.783 20.9469 142.098 19.6681 144.29 19.6681C146.41 19.6681 147.652 20.9469 147.652 23.1392V24.3085C146.446 24.1622 145.496 24.0892 144.4 24.0892C138.7 24.0892 135.631 26.1354 135.631 29.9354C135.631 33.5892 138.335 35.9642 142.39 35.9642C145.058 35.9642 146.994 35.0142 148.273 33.1873V35.5988ZM140.417 29.7892C140.417 28.0353 141.842 27.1219 144.729 27.1219C145.606 27.1219 146.446 27.195 147.652 27.3777V28.7661C147.652 31.0315 146.081 32.4565 143.487 32.4565C141.587 32.4565 140.417 31.4335 140.417 29.7892Z" fill="white"/>
<path d="M161.858 26.1354C161.858 21.8239 164.745 20.8007 169.056 21.1296V15.868C165.914 15.868 162.881 17.3662 161.456 19.8508V16.0873H156.779V35.5989H161.858V26.1354Z" fill="white"/>
<path d="M170.273 25.8431C170.273 31.5431 173.672 35.9642 178.933 35.9642C181.454 35.9642 183.573 34.8316 185.108 32.7854V35.5989H189.748V9.3642H184.706V18.6084C183.245 16.745 181.272 15.7219 178.933 15.7219C173.672 15.7219 170.273 20.07 170.273 25.8431ZM175.498 25.8431C175.498 22.1162 177.581 20.2161 180.066 20.2161C182.55 20.2161 184.67 22.0796 184.67 25.77C184.67 29.4603 182.587 31.4335 180.066 31.4335C177.581 31.4335 175.498 29.4969 175.498 25.8431Z" fill="white"/>
</svg>
