<svg width="32" height="32" viewBox="0 0 32 32" fill="none" xmlns="http://www.w3.org/2000/svg">
<path fill-rule="evenodd" clip-rule="evenodd" d="M30.9203 12.4393C28.4041 11.9309 25.8879 12.1857 23.3716 13.2038C23.2973 13.2338 23.2374 13.2912 23.2043 13.3642C23.1711 13.4371 23.1673 13.52 23.1936 13.5957L26.7478 23.859C26.7921 23.9871 26.9075 24.0692 27.0431 24.0692H30.9203V12.4393ZM9.18564 0.761307C10.546 0.761307 11.6487 1.85049 11.6487 3.19412C11.6487 4.53774 10.546 5.62693 9.18564 5.62693C7.82533 5.62693 6.72258 4.53774 6.72258 3.19412C6.72258 1.85049 7.82533 0.761307 9.18564 0.761307ZM16.0002 2.55662C17.3605 2.55662 18.4633 3.64581 18.4633 4.98943C18.4633 6.33306 17.3605 7.42224 16.0002 7.42224C14.6399 7.42224 13.5371 6.33306 13.5371 4.98943C13.5371 3.64581 14.6399 2.55662 16.0002 2.55662ZM22.8148 0.761307C24.1751 0.761307 25.2779 1.85049 25.2779 3.19412C25.2779 4.53774 24.1751 5.62693 22.8148 5.62693C21.4545 5.62693 20.3518 4.53774 20.3518 3.19412C20.3518 1.85049 21.4545 0.761307 22.8148 0.761307ZM11.8032 18.4606C11.8032 17.9777 11.9717 17.5851 12.3237 17.2542L14.8946 14.8368C16.3915 13.4294 17.7743 13.71 19.5195 14.2624C20.5366 14.5844 21.526 14.8975 22.6778 14.9711L25.4868 23.0827C25.1479 23.2514 24.7996 23.4187 24.4207 23.5734C23.7836 23.8334 23.1096 23.6984 22.6226 23.2119L17.0185 17.6111C16.9341 17.5272 16.8208 17.4786 16.7018 17.4753C16.5828 17.472 16.4671 17.5142 16.3781 17.5934C16.378 17.5932 16.1908 17.7487 16.1741 17.7622C15.6001 18.2256 14.638 19.0021 14.638 20.2866C14.638 21.0217 14.2814 21.6308 13.7387 22.0701C13.2163 22.4929 12.5249 22.7625 11.8032 22.8447V18.4606ZM9.21477 15.2829C9.66814 15.3982 10.1088 15.4777 10.5486 15.5241C11.3038 15.6037 12.0487 15.5848 12.8438 15.4814L11.6828 16.5731C11.1496 17.0744 10.8657 17.7285 10.8657 18.4606V23.3404C10.8657 23.4647 10.9151 23.5839 11.003 23.6718C11.0909 23.7597 11.2101 23.8091 11.3345 23.8091C12.4244 23.8091 13.5253 23.4454 14.3283 22.7953C15.0809 22.1861 15.5755 21.3307 15.5755 20.2867C15.5755 19.5084 16.213 18.9371 16.6586 18.5732L21.9634 23.8747C22.2178 24.129 22.5101 24.3219 22.8244 24.4502C23.0383 24.6737 23.2516 24.8977 23.465 25.1217C23.8436 25.5176 23.8666 26.1467 23.4723 26.5411C23.0872 26.9261 22.4472 26.9261 22.0621 26.5411C21.0336 25.5126 20.0228 24.4599 19.0057 23.4177C18.9632 23.3726 18.9121 23.3363 18.8554 23.3112C18.7988 23.286 18.7377 23.2723 18.6757 23.271C18.6137 23.2696 18.552 23.2806 18.4943 23.3033C18.4366 23.326 18.384 23.36 18.3396 23.4032C18.2951 23.4464 18.2597 23.4981 18.2354 23.5551C18.2111 23.6122 18.1984 23.6735 18.198 23.7355C18.1976 23.7975 18.2096 23.859 18.2332 23.9163C18.2568 23.9737 18.2916 24.0257 18.3355 24.0695L21.1258 26.9303C21.5131 27.3176 21.5129 27.9531 21.1256 28.3404C20.7385 28.7276 20.1028 28.7276 19.7156 28.3404C18.6432 27.2679 17.5898 26.1737 16.5295 25.0873C16.443 24.9984 16.3248 24.9476 16.2008 24.9458C16.0769 24.9441 15.9573 24.9917 15.8685 25.0782C15.7796 25.1646 15.7287 25.2828 15.727 25.4068C15.7253 25.5308 15.7729 25.6503 15.8593 25.7392L18.6496 28.6C19.0347 28.9851 19.0348 29.6249 18.6496 30.01C18.2775 30.3822 17.5761 30.3466 17.2395 30.0101C16.075 28.8456 14.9311 27.6632 13.78 26.4836C13.7375 26.4383 13.6864 26.4019 13.6297 26.3765C13.573 26.3512 13.5118 26.3374 13.4497 26.336C13.3876 26.3345 13.3259 26.3455 13.268 26.3682C13.2102 26.3909 13.1575 26.4249 13.113 26.4682C13.0684 26.5115 13.033 26.5633 13.0087 26.6205C12.9844 26.6776 12.9717 26.7391 12.9714 26.8012C12.9712 26.8633 12.9832 26.9248 13.007 26.9822C13.0308 27.0396 13.0658 27.0917 13.1099 27.1354L15.9001 29.9962C16.1843 30.2805 16.1815 30.7499 15.8952 31.031C15.6171 31.3024 15.1595 31.3121 14.8819 31.0345C14.8708 31.0456 10.2905 26.3317 9.87302 25.9039C8.81439 24.8194 7.87139 23.8567 6.48852 23.1552L9.21477 15.2829ZM11.9103 12.5001H20.0901V10.5401C20.0901 9.23012 19.3563 8.08331 18.2796 7.48993C17.6747 8.03137 16.8737 8.35968 16.0001 8.35968C15.1266 8.35968 14.3256 8.03131 13.7206 7.48993C12.644 8.08331 11.9102 9.23012 11.9102 10.5401V12.5001H11.9103ZM21.0276 10.7047V10.5401C21.0276 9.07981 20.311 7.78043 19.2119 6.97531C19.5316 6.43856 19.9884 5.99655 20.5353 5.69468C21.1619 6.25581 21.9737 6.56558 22.8148 6.56443C23.6559 6.56557 24.4677 6.25581 25.0943 5.69468C26.171 6.28799 26.9047 7.43487 26.9047 8.74481V10.7047H21.0276ZM5.0957 10.7047V8.74481C5.0957 7.43481 5.82939 6.28799 6.90614 5.69468C7.51108 6.23612 8.31208 6.56443 9.18564 6.56443C10.0592 6.56443 10.8601 6.23612 11.4651 5.69468C12.012 5.99657 12.4688 6.43857 12.7885 6.97531C11.6895 7.78043 10.9728 9.07981 10.9728 10.5401V10.7047H5.0957ZM1.08008 12.4393V24.0692H4.95739C5.09295 24.0692 5.20833 23.9871 5.25264 23.8591L8.80689 13.5958C8.83317 13.5201 8.82934 13.4372 8.7962 13.3642C8.76305 13.2913 8.70313 13.2339 8.62883 13.2039C6.11258 12.1857 3.59633 11.9309 1.08008 12.4393Z" fill="black"/>
</svg>
